<?xml version="1.0" encoding="UTF-8"?>
<svg version="1.1" xmlns="http://www.w3.org/2000/svg" width="500" height="500">
<path d="M0 0 C26.29470756 20.94268744 38.49675323 54.35095093 42.77734375 86.7109375 C42.90882813 87.65582031 43.0403125 88.60070312 43.17578125 89.57421875 C44.24681716 98.88065242 43.8400582 108.36648436 43.77734375 117.7109375 C50.37734375 117.7109375 56.97734375 117.7109375 63.77734375 117.7109375 C63.77734375 120.3509375 63.77734375 122.9909375 63.77734375 125.7109375 C59.15734375 125.7109375 54.53734375 125.7109375 49.77734375 125.7109375 C49.77734375 127.0309375 49.77734375 128.3509375 49.77734375 129.7109375 C53.73734375 129.7109375 57.69734375 129.7109375 61.77734375 129.7109375 C61.77734375 132.3509375 61.77734375 134.9909375 61.77734375 137.7109375 C57.81734375 137.7109375 53.85734375 137.7109375 49.77734375 137.7109375 C49.77734375 141.0109375 49.77734375 144.3109375 49.77734375 147.7109375 C46.47734375 147.7109375 43.17734375 147.7109375 39.77734375 147.7109375 C39.24109375 149.0721875 38.70484375 150.4334375 38.15234375 151.8359375 C37.78109375 152.75117188 37.40984375 153.66640625 37.02734375 154.609375 C36.17229658 156.7309608 35.3399602 158.86180298 34.52734375 161 C30.82157242 170.32759489 25.85241867 177.78510826 19.77734375 185.7109375 C18.77664926 187.04374968 17.77630219 188.37682363 16.77734375 189.7109375 C17.68484375 190.6390625 18.59234375 191.5671875 19.52734375 192.5234375 C25.2029229 199.20770963 27.54128378 207.24248726 27.15625 215.94921875 C25.96781448 224.61132098 22.58860812 232.10021973 15.77734375 237.7109375 C7.59799496 243.06256857 -0.32133173 245.71304764 -10.07421875 244.296875 C-19.57059251 242.12552783 -26.71345056 236.69156256 -32.22265625 228.7109375 C-36.19200425 221.43379951 -36.45658703 212.82133688 -35.22265625 204.7109375 C-32.4913624 196.05215487 -27.96095133 189.71624797 -19.91796875 185.50390625 C-8.89097062 180.3881022 0.28213961 181.03946545 11.77734375 184.7109375 C22.36666248 174.06529261 28.30953846 161.84466769 32.77734375 147.7109375 C31.78734375 147.3809375 30.79734375 147.0509375 29.77734375 146.7109375 C28.44401042 144.7109375 27.11067708 142.7109375 25.77734375 140.7109375 C24.78734375 140.3809375 23.79734375 140.0509375 22.77734375 139.7109375 C22.80828125 141.4125 22.80828125 141.4125 22.83984375 143.1484375 C22.77734375 146.7109375 22.77734375 146.7109375 21.77734375 147.7109375 C19.96484375 147.84375 19.96484375 147.84375 17.77734375 147.8359375 C17.05546875 147.83851563 16.33359375 147.84109375 15.58984375 147.84375 C13.77734375 147.7109375 13.77734375 147.7109375 12.77734375 146.7109375 C12.67740843 144.6503844 12.64653469 142.5864116 12.64453125 140.5234375 C12.64324219 139.26789063 12.64195312 138.01234375 12.640625 136.71875 C12.64271973 136.06165039 12.64481445 135.40455078 12.64697266 134.72753906 C12.65232141 132.71932415 12.64702684 130.71133291 12.640625 128.703125 C12.64255859 126.81980469 12.64255859 126.81980469 12.64453125 124.8984375 C12.64565918 123.73699219 12.64678711 122.57554687 12.64794922 121.37890625 C12.77734375 118.7109375 12.77734375 118.7109375 13.77734375 117.7109375 C29.0713979 116.71930307 29.0713979 116.71930307 35.77734375 120.7109375 C36.10734375 121.0409375 36.43734375 121.3709375 36.77734375 121.7109375 C44.15643397 91.60424939 31.88382348 54.53041658 17.00683594 28.72265625 C6.35913085 11.30067652 -8.55630125 -1.55207579 -28.72265625 -6.5390625 C-30.2176032 -6.81769061 -31.71838381 -7.06620732 -33.22265625 -7.2890625 C-34.11210937 -7.423125 -35.0015625 -7.5571875 -35.91796875 -7.6953125 C-50.37295527 -9.39136425 -64.75860568 -6.83796051 -76.72265625 1.7109375 C-83.45595572 7.20608893 -87.36386899 14.2385538 -89.22265625 22.7109375 C-89.84816623 33.05748786 -89.95248254 42.25128492 -85.22265625 51.7109375 C-84.84496094 52.52820313 -84.46726563 53.34546875 -84.078125 54.1875 C-78.31297087 65.71780826 -69.95399476 76.1793386 -61.84326172 86.14672852 C-51.84107715 98.47396667 -45.30513853 111.72259761 -40.22265625 126.7109375 C-39.89265625 123.7409375 -39.56265625 120.7709375 -39.22265625 117.7109375 C-36.70115415 117.62920814 -34.18235708 117.57010377 -31.66015625 117.5234375 C-30.95568359 117.49830078 -30.25121094 117.47316406 -29.52539062 117.44726562 C-24.33908301 117.37556552 -20.8154737 118.25525705 -16.22265625 120.7109375 C-13.71007504 124.0872185 -12.9767696 126.70965221 -13.22265625 130.8359375 C-13.77464517 134.07964769 -14.19561463 134.68389588 -16.66015625 137.1484375 C-20.11815657 139.25697428 -21.82867137 139.83085157 -25.84765625 139.7734375 C-26.66492188 139.76441406 -27.4821875 139.75539062 -28.32421875 139.74609375 C-29.26394531 139.72869141 -29.26394531 139.72869141 -30.22265625 139.7109375 C-30.22265625 142.3509375 -30.22265625 144.9909375 -30.22265625 147.7109375 C-32.20265625 147.7109375 -34.18265625 147.7109375 -36.22265625 147.7109375 C-36.20170898 148.33323242 -36.18076172 148.95552734 -36.15917969 149.59667969 C-35.2476179 181.03979192 -42.47476205 210.06402388 -64.28515625 233.7109375 C-66.2309124 235.7461678 -68.21443359 237.73749848 -70.22265625 239.7109375 C-70.97160156 240.45859375 -71.72054687 241.20625 -72.4921875 241.9765625 C-85.85824876 254.57388925 -103.5135411 263.2784069 -121.22265625 267.7109375 C-121.90803467 267.88826416 -122.59341309 268.06559082 -123.29956055 268.24829102 C-130.31736354 269.87917356 -137.21156553 270.05018962 -144.39770508 270.02661133 C-146.38954134 270.02347001 -148.38135932 270.04772536 -150.37304688 270.07226562 C-176.97326881 270.08540154 -204.15462598 259.39965231 -223.41015625 240.8359375 C-226.22265625 238.00367755 -226.22265625 238.00367755 -226.22265625 235.7109375 C-224.5390625 234.96875 -224.5390625 234.96875 -222.22265625 234.7109375 C-219.875 236.265625 -219.875 236.265625 -217.16015625 238.5859375 C-195.11311378 256.24590819 -166.25496493 260.95826467 -138.79150391 258.49267578 C-130.37987185 257.36941396 -122.34233016 254.59964079 -114.3671875 251.796875 C-111.22265625 250.7109375 -111.22265625 250.7109375 -107.22265625 249.7109375 C-107.55265625 246.7409375 -107.88265625 243.7709375 -108.22265625 240.7109375 C-142.87265625 240.2159375 -142.87265625 240.2159375 -178.22265625 239.7109375 C-178.22265625 222.8809375 -178.22265625 206.0509375 -178.22265625 188.7109375 C-154.79265625 188.7109375 -131.36265625 188.7109375 -107.22265625 188.7109375 C-107.22265625 166.6009375 -107.22265625 144.4909375 -107.22265625 121.7109375 C-90.72265625 121.7109375 -74.22265625 121.7109375 -57.22265625 121.7109375 C-57.22265625 143.8209375 -57.22265625 165.9309375 -57.22265625 188.7109375 C-55.57265625 188.7109375 -53.92265625 188.7109375 -52.22265625 188.7109375 C-51.5149526 185.71680669 -50.85856731 182.72091653 -50.22265625 179.7109375 C-49.82626953 177.90689453 -49.82626953 177.90689453 -49.421875 176.06640625 C-43.48140563 147.35822164 -48.22003098 117.49109471 -64.22265625 92.7109375 C-66.30020847 89.94604557 -68.48301506 87.32386117 -70.734375 84.69921875 C-84.48347564 68.18734749 -96.36061348 49.85307302 -96.22265625 27.7109375 C-94.91346853 15.65870933 -90.5235127 5.95879686 -81.6875 -2.40234375 C-58.27570693 -20.32293972 -23.05820296 -16.37831144 0 0 Z M-30.22265625 125.7109375 C-30.22265625 127.6909375 -30.22265625 129.6709375 -30.22265625 131.7109375 C-28.24265625 131.7109375 -26.26265625 131.7109375 -24.22265625 131.7109375 C-23.89265625 130.0609375 -23.56265625 128.4109375 -23.22265625 126.7109375 C-25.53265625 126.3809375 -27.84265625 126.0509375 -30.22265625 125.7109375 Z M22.77734375 125.7109375 C22.77734375 127.6909375 22.77734375 129.6709375 22.77734375 131.7109375 C24.75734375 131.7109375 26.73734375 131.7109375 28.77734375 131.7109375 C29.10734375 130.0609375 29.43734375 128.4109375 29.77734375 126.7109375 C27.46734375 126.3809375 25.15734375 126.0509375 22.77734375 125.7109375 Z M39.77734375 140.7109375 C39.77734375 142.3609375 39.77734375 144.0109375 39.77734375 145.7109375 C40.10734375 145.7109375 40.43734375 145.7109375 40.77734375 145.7109375 C40.77734375 144.0609375 40.77734375 142.4109375 40.77734375 140.7109375 C40.44734375 140.7109375 40.11734375 140.7109375 39.77734375 140.7109375 Z M-24.22265625 196.7109375 C-29.35972516 203.90804928 -30.42351019 211.01586545 -29.22265625 219.7109375 C-26.88193956 227.45522357 -21.2204306 232.88196663 -14.22265625 236.7109375 C-6.55316031 239.26307352 -0.13042895 239.13221407 7.12890625 235.55078125 C13.2956334 231.84868251 18.2078659 226.67934589 20.4140625 219.6953125 C21.81883907 212.02190932 20.5686688 205.52629562 16.77734375 198.7109375 C12.23426897 192.24199407 6.2927419 189.63561264 -1.22265625 187.7109375 C-9.76627297 186.49042083 -18.74103026 190.14411652 -24.22265625 196.7109375 Z " fill="#5271FB" transform="translate(226.22265625,104.2890625)"/>
<path d="M0 0 C26.29470756 20.94268744 38.49675323 54.35095093 42.77734375 86.7109375 C42.90882813 87.65582031 43.0403125 88.60070312 43.17578125 89.57421875 C44.24681716 98.88065242 43.8400582 108.36648436 43.77734375 117.7109375 C50.37734375 117.7109375 56.97734375 117.7109375 63.77734375 117.7109375 C63.77734375 120.3509375 63.77734375 122.9909375 63.77734375 125.7109375 C59.15734375 125.7109375 54.53734375 125.7109375 49.77734375 125.7109375 C49.77734375 127.0309375 49.77734375 128.3509375 49.77734375 129.7109375 C53.73734375 129.7109375 57.69734375 129.7109375 61.77734375 129.7109375 C61.77734375 132.3509375 61.77734375 134.9909375 61.77734375 137.7109375 C57.81734375 137.7109375 53.85734375 137.7109375 49.77734375 137.7109375 C49.77734375 141.0109375 49.77734375 144.3109375 49.77734375 147.7109375 C46.47734375 147.7109375 43.17734375 147.7109375 39.77734375 147.7109375 C39.24109375 149.0721875 38.70484375 150.4334375 38.15234375 151.8359375 C37.78109375 152.75117188 37.40984375 153.66640625 37.02734375 154.609375 C36.17229658 156.7309608 35.3399602 158.86180298 34.52734375 161 C30.82157242 170.32759489 25.85241867 177.78510826 19.77734375 185.7109375 C18.77664926 187.04374968 17.77630219 188.37682363 16.77734375 189.7109375 C17.68484375 190.6390625 18.59234375 191.5671875 19.52734375 192.5234375 C25.2029229 199.20770963 27.54128378 207.24248726 27.15625 215.94921875 C25.96781448 224.61132098 22.58860812 232.10021973 15.77734375 237.7109375 C7.59799496 243.06256857 -0.32133173 245.71304764 -10.07421875 244.296875 C-19.57059251 242.12552783 -26.71345056 236.69156256 -32.22265625 228.7109375 C-36.19200425 221.43379951 -36.45658703 212.82133688 -35.22265625 204.7109375 C-32.4913624 196.05215487 -27.96095133 189.71624797 -19.91796875 185.50390625 C-8.89097062 180.3881022 0.28213961 181.03946545 11.77734375 184.7109375 C22.36666248 174.06529261 28.30953846 161.84466769 32.77734375 147.7109375 C31.78734375 147.3809375 30.79734375 147.0509375 29.77734375 146.7109375 C28.44401042 144.7109375 27.11067708 142.7109375 25.77734375 140.7109375 C24.78734375 140.3809375 23.79734375 140.0509375 22.77734375 139.7109375 C22.79796875 140.8453125 22.81859375 141.9796875 22.83984375 143.1484375 C22.77734375 146.7109375 22.77734375 146.7109375 21.77734375 147.7109375 C19.96484375 147.84375 19.96484375 147.84375 17.77734375 147.8359375 C17.05546875 147.83851563 16.33359375 147.84109375 15.58984375 147.84375 C13.77734375 147.7109375 13.77734375 147.7109375 12.77734375 146.7109375 C12.67740843 144.6503844 12.64653469 142.5864116 12.64453125 140.5234375 C12.64324219 139.26789063 12.64195312 138.01234375 12.640625 136.71875 C12.64271973 136.06165039 12.64481445 135.40455078 12.64697266 134.72753906 C12.65232141 132.71932415 12.64702684 130.71133291 12.640625 128.703125 C12.64191406 127.44757813 12.64320313 126.19203125 12.64453125 124.8984375 C12.64565918 123.73699219 12.64678711 122.57554687 12.64794922 121.37890625 C12.77734375 118.7109375 12.77734375 118.7109375 13.77734375 117.7109375 C29.0713979 116.71930307 29.0713979 116.71930307 35.77734375 120.7109375 C36.10734375 121.0409375 36.43734375 121.3709375 36.77734375 121.7109375 C44.15643397 91.60424939 31.88382348 54.53041658 17.00683594 28.72265625 C6.35913085 11.30067652 -8.55630125 -1.55207579 -28.72265625 -6.5390625 C-30.2176032 -6.81769061 -31.71838381 -7.06620732 -33.22265625 -7.2890625 C-34.11210937 -7.423125 -35.0015625 -7.5571875 -35.91796875 -7.6953125 C-50.37295527 -9.39136425 -64.75860568 -6.83796051 -76.72265625 1.7109375 C-83.45595572 7.20608893 -87.36386899 14.2385538 -89.22265625 22.7109375 C-89.84816623 33.05748786 -89.95248254 42.25128492 -85.22265625 51.7109375 C-84.84496094 52.52820313 -84.46726563 53.34546875 -84.078125 54.1875 C-78.31297087 65.71780826 -69.95399476 76.1793386 -61.84326172 86.14672852 C-51.84107715 98.47396667 -45.30513853 111.72259761 -40.22265625 126.7109375 C-39.89265625 123.7409375 -39.56265625 120.7709375 -39.22265625 117.7109375 C-36.70115415 117.62920814 -34.18235708 117.57010377 -31.66015625 117.5234375 C-30.95568359 117.49830078 -30.25121094 117.47316406 -29.52539062 117.44726562 C-24.33908301 117.37556552 -20.8154737 118.25525705 -16.22265625 120.7109375 C-13.71007504 124.0872185 -12.9767696 126.70965221 -13.22265625 130.8359375 C-13.77464517 134.07964769 -14.19561463 134.68389588 -16.66015625 137.1484375 C-20.11815657 139.25697428 -21.82867137 139.83085157 -25.84765625 139.7734375 C-26.66492188 139.76441406 -27.4821875 139.75539062 -28.32421875 139.74609375 C-29.26394531 139.72869141 -29.26394531 139.72869141 -30.22265625 139.7109375 C-30.22265625 142.3509375 -30.22265625 144.9909375 -30.22265625 147.7109375 C-32.20265625 147.7109375 -34.18265625 147.7109375 -36.22265625 147.7109375 C-36.2069458 148.70722168 -36.2069458 148.70722168 -36.19091797 149.72363281 C-35.85720868 174.08018668 -35.85720868 174.08018668 -38.22265625 183.7109375 C-38.55265625 183.7109375 -38.88265625 183.7109375 -39.22265625 183.7109375 C-39.24960476 181.75267877 -39.26902843 179.79431524 -39.28515625 177.8359375 C-39.29675781 176.74539063 -39.30835938 175.65484375 -39.3203125 174.53125 C-39.22265625 171.7109375 -39.22265625 171.7109375 -38.22265625 169.7109375 C-38.07042652 168.04528001 -37.9734841 166.37437254 -37.90625 164.703125 C-37.86435547 163.71699219 -37.82246094 162.73085938 -37.77929688 161.71484375 C-37.73998047 160.68230469 -37.70066406 159.64976562 -37.66015625 158.5859375 C-37.61697266 157.54566406 -37.57378906 156.50539063 -37.52929688 155.43359375 C-37.42302745 152.85951222 -37.32099042 150.28533242 -37.22265625 147.7109375 C-38.54265625 148.0409375 -39.86265625 148.3709375 -41.22265625 148.7109375 C-40.23265625 149.7009375 -40.23265625 149.7009375 -39.22265625 150.7109375 C-42.19265625 151.7009375 -42.19265625 151.7009375 -45.22265625 152.7109375 C-45.19945312 153.74992188 -45.17625 154.78890625 -45.15234375 155.859375 C-45.04213878 163.03389064 -45.04642928 169.77768841 -46.78515625 176.79296875 C-47.33385298 178.87054363 -47.33385298 178.87054363 -47.22265625 181.7109375 C-47.88265625 181.7109375 -48.54265625 181.7109375 -49.22265625 181.7109375 C-49.34640625 182.4534375 -49.47015625 183.1959375 -49.59765625 183.9609375 C-50.17752326 186.51235235 -50.95974364 188.4376948 -52.22265625 190.7109375 C-54.20265625 190.7109375 -56.18265625 190.7109375 -58.22265625 190.7109375 C-58.22265625 167.9409375 -58.22265625 145.1709375 -58.22265625 121.7109375 C-57.89265625 121.7109375 -57.56265625 121.7109375 -57.22265625 121.7109375 C-57.22265625 143.8209375 -57.22265625 165.9309375 -57.22265625 188.7109375 C-55.57265625 188.7109375 -53.92265625 188.7109375 -52.22265625 188.7109375 C-51.5149526 185.71680669 -50.85856731 182.72091653 -50.22265625 179.7109375 C-49.95839844 178.50824219 -49.69414062 177.30554688 -49.421875 176.06640625 C-43.48140563 147.35822164 -48.22003098 117.49109471 -64.22265625 92.7109375 C-66.30020847 89.94604557 -68.48301506 87.32386117 -70.734375 84.69921875 C-84.48347564 68.18734749 -96.36061348 49.85307302 -96.22265625 27.7109375 C-94.91346853 15.65870933 -90.5235127 5.95879686 -81.6875 -2.40234375 C-58.27570693 -20.32293972 -23.05820296 -16.37831144 0 0 Z M-30.22265625 125.7109375 C-30.22265625 127.6909375 -30.22265625 129.6709375 -30.22265625 131.7109375 C-28.24265625 131.7109375 -26.26265625 131.7109375 -24.22265625 131.7109375 C-23.89265625 130.0609375 -23.56265625 128.4109375 -23.22265625 126.7109375 C-25.53265625 126.3809375 -27.84265625 126.0509375 -30.22265625 125.7109375 Z M22.77734375 125.7109375 C22.77734375 127.6909375 22.77734375 129.6709375 22.77734375 131.7109375 C24.75734375 131.7109375 26.73734375 131.7109375 28.77734375 131.7109375 C29.10734375 130.0609375 29.43734375 128.4109375 29.77734375 126.7109375 C27.46734375 126.3809375 25.15734375 126.0509375 22.77734375 125.7109375 Z M39.77734375 140.7109375 C39.77734375 142.3609375 39.77734375 144.0109375 39.77734375 145.7109375 C40.10734375 145.7109375 40.43734375 145.7109375 40.77734375 145.7109375 C40.77734375 144.0609375 40.77734375 142.4109375 40.77734375 140.7109375 C40.44734375 140.7109375 40.11734375 140.7109375 39.77734375 140.7109375 Z M-24.22265625 196.7109375 C-29.35972516 203.90804928 -30.42351019 211.01586545 -29.22265625 219.7109375 C-26.88193956 227.45522357 -21.2204306 232.88196663 -14.22265625 236.7109375 C-6.55316031 239.26307352 -0.13042895 239.13221407 7.12890625 235.55078125 C13.2956334 231.84868251 18.2078659 226.67934589 20.4140625 219.6953125 C21.81883907 212.02190932 20.5686688 205.52629562 16.77734375 198.7109375 C12.23426897 192.24199407 6.2927419 189.63561264 -1.22265625 187.7109375 C-9.76627297 186.49042083 -18.74103026 190.14411652 -24.22265625 196.7109375 Z " fill="#5472ED" transform="translate(226.22265625,104.2890625)"/>
<path d="M0 0 C0.33 0 0.66 0 1 0 C1.01417969 0.94359375 1.02835937 1.8871875 1.04296875 2.859375 C1.49551972 15.04155783 4.90517305 23.33405284 11 34 C1.1 34.33 -8.8 34.66 -19 35 C-18.98839844 39.75277344 -18.97679687 44.50554687 -18.96484375 49.40234375 C-18.95973682 52.40560032 -18.95492304 55.40885156 -18.95117188 58.41210938 C-18.9451841 63.18352362 -18.93808554 67.95491875 -18.92456055 72.72631836 C-18.91372939 76.57125114 -18.90772268 80.41616345 -18.90512276 84.26111031 C-18.90326892 85.73118983 -18.89964909 87.20126818 -18.89426994 88.67133904 C-18.88705645 90.72354467 -18.88600919 92.77566467 -18.88647461 94.82788086 C-18.884254 95.99814316 -18.88203339 97.16840546 -18.87974548 98.37413025 C-19 101 -19 101 -20 102 C-21.43740353 102.09813987 -22.87956327 102.1279828 -24.3203125 102.12939453 C-25.23796387 102.13254669 -26.15561523 102.13569885 -27.10107422 102.13894653 C-28.09896973 102.1369223 -29.09686523 102.13489807 -30.125 102.1328125 C-31.14223145 102.13376923 -32.15946289 102.13472595 -33.20751953 102.13571167 C-35.36295636 102.13639361 -37.51839522 102.13453835 -39.67382812 102.13037109 C-42.98572371 102.12502305 -46.29748367 102.13031563 -49.609375 102.13671875 C-51.69791697 102.13605797 -53.78645885 102.13477681 -55.875 102.1328125 C-57.37184326 102.13584885 -57.37184326 102.13584885 -58.89892578 102.13894653 C-59.81657715 102.13579437 -60.73422852 102.13264221 -61.6796875 102.12939453 C-62.49163574 102.12859894 -63.30358398 102.12780334 -64.14013672 102.12698364 C-66 102 -66 102 -67 101 C-67.08858646 98.26105915 -67.11523479 95.5474673 -67.09765625 92.80859375 C-67.0962413 91.98875504 -67.09482635 91.16891632 -67.09336853 90.32423401 C-67.08775289 87.69528618 -67.07519779 85.06642227 -67.0625 82.4375 C-67.05748701 80.65950643 -67.05292376 78.88151154 -67.04882812 77.10351562 C-67.03777839 72.73564455 -67.02050331 68.36783652 -67 64 C-66.00564941 63.54326904 -65.01129883 63.08653809 -63.98681641 62.6159668 C-48.66893568 55.54815636 -35.99516188 47.96174918 -24 36 C-23.15179688 35.1853125 -22.30359375 34.370625 -21.4296875 33.53125 C-18.77787921 30.76859442 -16.4717472 27.85901212 -14.25 24.75 C-13.82605957 24.15880371 -13.40211914 23.56760742 -12.96533203 22.95849609 C-7.91186739 15.71276092 -3.95136646 7.88364419 0 0 Z " fill="#D4F1F0" transform="translate(187,309)"/>
<path d="M0 0 C3.56169096 1.27203249 5.36156805 1.98431281 7.375 5.1875 C7.58125 5.785625 7.7875 6.38375 8 7 C6.25 9.0625 6.25 9.0625 4 11 C2.125 10.8125 2.125 10.8125 0 10 C-4.53811978 9.04289518 -4.53811978 9.04289518 -9 10 C-10.14352916 12.28705831 -10.10334439 13.59264762 -10.0625 16.125 C-10.041875 17.40375 -10.02125 18.6825 -10 20 C-5.46203439 21.05534084 -3.22962016 20.7808927 1 19 C4.08556972 19.3630082 5.32505941 20.21670627 8 22 C8.37125 20.783125 8.7425 19.56625 9.125 18.3125 C11.22024496 11.97615532 14.12789535 6.01375958 17 0 C19.64 0 22.28 0 25 0 C26.08598911 2.14452344 27.16880699 4.29055958 28.25 6.4375 C28.55035156 7.02982422 28.85070312 7.62214844 29.16015625 8.23242188 C31.60804019 13.10214843 33.77902221 18.00279997 36 23 C36.33 15.41 36.66 7.82 37 0 C54.62831858 -0.58761062 54.62831858 -0.58761062 61 4 C63.27222497 7.71406872 63.38712183 10.66423553 63 15 C62.03126968 16.35622245 61.03565785 17.69417053 60 19 C60.22861471 22.65783538 61.66393263 23.88524351 64 27 C64.33 18.09 64.66 9.18 65 0 C68.609375 -0.020625 72.21875 -0.04125 75.9375 -0.0625 C77.07695068 -0.071604 78.21640137 -0.08070801 79.39038086 -0.09008789 C80.28120361 -0.09258545 81.17202637 -0.09508301 82.08984375 -0.09765625 C83.46450806 -0.10551147 83.46450806 -0.10551147 84.86694336 -0.11352539 C87 0 87 0 88 1 C88 3.31 88 5.62 88 8 C83.38 8 78.76 8 74 8 C74 8.99 74 9.98 74 11 C77.96 11 81.92 11 86 11 C86 13.64 86 16.28 86 19 C82.04 19 78.08 19 74 19 C74 19.66 74 20.32 74 21 C74.67546875 20.98839844 75.3509375 20.97679687 76.046875 20.96484375 C76.93890625 20.95582031 77.8309375 20.94679687 78.75 20.9375 C80.07257813 20.92009766 80.07257813 20.92009766 81.421875 20.90234375 C83.7818838 20.99173802 85.74498524 21.33087179 88 22 C88 24.64 88 27.28 88 30 C83.3736342 30.1237709 78.74823539 30.21441516 74.12060547 30.2746582 C72.54719249 30.29977448 70.97389588 30.33387472 69.40087891 30.37719727 C67.13675228 30.43798399 64.87416978 30.46623582 62.609375 30.48828125 C61.55759064 30.52699089 61.55759064 30.52699089 60.48455811 30.56648254 C56.71267023 30.56863958 55.3035626 30.30261051 52.58691406 27.59448242 C51 25 51 25 50 23 C47.97536745 22.34786708 47.97536745 22.34786708 46 22 C46.185625 23.134375 46.37125 24.26875 46.5625 25.4375 C46.7790625 27.2009375 46.7790625 27.2009375 47 29 C44.88139109 31.11860891 40.53450493 30.32270498 37.625 30.375 C36.84382813 30.41238281 36.06265625 30.44976562 35.2578125 30.48828125 C33.06227121 30.52211665 31.1388209 30.50425603 29 30 C27.28515625 27.52734375 27.28515625 27.52734375 26 25 C23.51486417 24.18593502 23.51486417 24.18593502 20.8125 24.1875 C19.91144531 24.13980469 19.01039063 24.09210938 18.08203125 24.04296875 C17.39496094 24.02878906 16.70789063 24.01460937 16 24 C15.34 25.98 14.68 27.96 14 30 C11.03 30 8.06 30 5 30 C4.67 29.34 4.34 28.68 4 28 C3.42894531 28.32226562 2.85789062 28.64453125 2.26953125 28.9765625 C-1.96325076 30.88532134 -6.61939635 30.81833251 -11 29.3125 C-15.37058408 27.05185306 -17.95088265 24.42609347 -20 20 C-20.78966018 15.00153246 -20.58113052 11.20696339 -18.375 6.625 C-12.78084707 0.44198886 -8.13950825 -1.09671946 0 0 Z M47 8 C45.70366379 9.06645115 45.70366379 9.06645115 45.9375 11.5625 C45.958125 12.366875 45.97875 13.17125 46 14 C48.31 14 50.62 14 53 14 C53.33 12.68 53.66 11.36 54 10 C51.35261084 8.5393715 50.10551666 8 47 8 Z M21 13 C20.67 13.99 20.34 14.98 20 16 C20.99 15.67 21.98 15.34 23 15 C22.34 14.34 21.68 13.68 21 13 Z " fill="#5375EF" transform="translate(396,222)"/>
<path d="M0 0 C5.21033073 3.69901776 8.07403629 8.46504107 9.1640625 14.74609375 C9.51582422 21.42030953 8.07232861 25.96259898 3.6875 31 C-0.35239004 35.05022224 -4.58170876 38.25383127 -10.4375 38.4375 C-16.71850398 38.2820296 -22.31269955 35.67739199 -26.984375 31.5078125 C-30.47211891 27.54819736 -32.08942464 23.93331977 -32.6875 18.75 C-32.03434652 12.21846521 -29.18726633 5.48991635 -24.3125 1 C-16.24662712 -3.6408423 -8.32700415 -4.48377147 0 0 Z " fill="#D3EFF0" transform="translate(233.3125,300)"/>
<path d="M0 0 C0.61875 0.33 1.2375 0.66 1.875 1 C2.205 0.34 2.535 -0.32 2.875 -1 C7.02081887 -1.02886751 11.16661216 -1.04675327 15.3125 -1.0625 C16.49650391 -1.07087891 17.68050781 -1.07925781 18.90039062 -1.08789062 C20.02509766 -1.09111328 21.14980469 -1.09433594 22.30859375 -1.09765625 C23.35072021 -1.10289307 24.39284668 -1.10812988 25.46655273 -1.11352539 C27.875 -1 27.875 -1 28.875 0 C28.91592937 2.33297433 28.91741723 4.66705225 28.875 7 C24.42 7.495 24.42 7.495 19.875 8 C19.875 14.93 19.875 21.86 19.875 29 C16.905 29 13.935 29 10.875 29 C10.875 22.07 10.875 15.14 10.875 8 C3.61385993 7.49515621 3.61385993 7.49515621 0.125 9.125 C-0.6175 9.41375 -1.36 9.7025 -2.125 10 C-3.46687818 9.3507041 -4.79979497 8.68268138 -6.125 8 C-9.95470281 8.17689837 -9.95470281 8.17689837 -13.125 10 C-13.19648199 11.35243917 -13.20899454 12.70834367 -13.1875 14.0625 C-13.166875 15.361875 -13.14625 16.66125 -13.125 18 C-10.33398563 19.2086563 -10.33398563 19.2086563 -7.125 20 C-5.05830603 19.09166275 -5.05830603 19.09166275 -3.125 18 C-0.5625 18.125 -0.5625 18.125 1.875 19 C3.6875 21.0625 3.6875 21.0625 4.875 23 C0.8620957 27.45878255 -2.07574803 28.83736095 -8.0625 29.3125 C-13.64107479 29.13423727 -16.96270267 27.1364685 -20.9375 23.25 C-24.17032533 18.44694522 -24.4734626 15.02108308 -23.5 9.375 C-21.71039496 4.98233308 -19.33123684 2.33303152 -15.26953125 -0.12109375 C-10.47819829 -2.0847548 -4.83896813 -1.5484698 0 0 Z " fill="#5272F9" transform="translate(338.125,223)"/>
<path d="M0 0 C7.26 0 14.52 0 22 0 C22.33 2.31 22.66 4.62 23 7 C22 8 22 8 19.05859375 8.09765625 C17.26615234 8.08025391 17.26615234 8.08025391 15.4375 8.0625 C13.64119141 8.04896484 13.64119141 8.04896484 11.80859375 8.03515625 C10.88175781 8.02355469 9.95492187 8.01195312 9 8 C9 8.99 9 9.98 9 11 C12.96 11 16.92 11 21 11 C21 13.64 21 16.28 21 19 C17.04 19 13.08 19 9 19 C9 19.66 9 20.32 9 21 C13.62 21 18.24 21 23 21 C23 23.97 23 26.94 23 30 C15.41 30 7.82 30 0 30 C-0.8716575 26.51336999 -1.12870221 23.97099503 -1.1328125 20.4296875 C-1.13410156 19.36878906 -1.13539063 18.30789062 -1.13671875 17.21484375 C-1.13285156 16.11269531 -1.12898437 15.01054687 -1.125 13.875 C-1.12886719 12.76511719 -1.13273438 11.65523437 -1.13671875 10.51171875 C-1.13542969 9.45339844 -1.13414062 8.39507812 -1.1328125 7.3046875 C-1.13168457 6.33515137 -1.13055664 5.36561523 -1.12939453 4.36669922 C-1 2 -1 2 0 0 Z " fill="#5475ED" transform="translate(215,222)"/>
<path d="M0 0 C7.59 0 15.18 0 23 0 C23 2.64 23 5.28 23 8 C18.38 8 13.76 8 9 8 C9 8.99 9 9.98 9 11 C12.96 11 16.92 11 21 11 C21 13.64 21 16.28 21 19 C17.04 19 13.08 19 9 19 C9 19.66 9 20.32 9 21 C13.62 21 18.24 21 23 21 C24.15941038 24.47823115 23.70820884 26.45895578 23 30 C19.35418313 30.02887512 15.70839537 30.04675585 12.0625 30.0625 C10.50112305 30.07506836 10.50112305 30.07506836 8.90820312 30.08789062 C7.91884766 30.09111328 6.92949219 30.09433594 5.91015625 30.09765625 C4.53549194 30.10551147 4.53549194 30.10551147 3.13305664 30.11352539 C1 30 1 30 0 29 C-0.08775605 26.85441173 -0.10695219 24.70595579 -0.09765625 22.55859375 C-0.09443359 21.25341797 -0.09121094 19.94824219 -0.08789062 18.60351562 C-0.07953401 17.2148431 -0.07106905 15.82617123 -0.0625 14.4375 C-0.05748666 13.04492344 -0.05292347 11.65234519 -0.04882812 10.25976562 C-0.03699442 6.83982549 -0.01905831 3.4199075 0 0 Z " fill="#5877EC" transform="translate(291,222)"/>
<path d="M0 0 C0.33 0 0.66 0 1 0 C1.01417969 0.94359375 1.02835938 1.8871875 1.04296875 2.859375 C1.49551972 15.04155783 4.90517305 23.33405284 11 34 C1.1 34.33 -8.8 34.66 -19 35 C-19.33 35.99 -19.66 36.98 -20 38 C-20.99 38 -21.98 38 -23 38 C-24.68798827 39.43750191 -24.68798827 39.43750191 -26 41 C-26.66 40.67 -27.32 40.34 -28 40 C-27.56284668 39.65751221 -27.12569336 39.31502441 -26.67529297 38.9621582 C-22.01476298 35.16312775 -18.52852142 31.12581909 -15.125 26.1875 C-14.36171387 25.09610718 -14.36171387 25.09610718 -13.58300781 23.98266602 C-8.36263487 16.35232441 -4.10021074 8.27289995 0 0 Z " fill="#D2EEEF" transform="translate(187,309)"/>
<path d="M0 0 C11.25 0 11.25 0 17 1 C17.33 2.32 17.66 3.64 18 5 C19.32 5.33 20.64 5.66 22 6 C22.1875 8.875 22.1875 8.875 22 12 C21.01 12.66 20.02 13.32 19 14 C19.15597656 14.68707031 19.31195313 15.37414062 19.47265625 16.08203125 C19.76462891 17.43361328 19.76462891 17.43361328 20.0625 18.8125 C20.35833984 20.15248047 20.35833984 20.15248047 20.66015625 21.51953125 C21 24 21 24 20 27 C17.61435923 26.42415568 15.33317216 25.77772405 13 25 C11.8125 22.9375 11.8125 22.9375 11 21 C9.68 21 8.36 21 7 21 C6.67 22.65 6.34 24.3 6 26 C3.69 26 1.38 26 -1 26 C-0.67 17.42 -0.34 8.84 0 0 Z M8 6 C6.70366379 7.06645115 6.70366379 7.06645115 6.9375 9.5625 C6.958125 10.366875 6.97875 11.17125 7 12 C9.31 12 11.62 12 14 12 C14.33 10.68 14.66 9.36 15 8 C12.35261084 6.5393715 11.10551666 6 8 6 Z " fill="#4E71FA" transform="translate(435,224)"/>
<path d="M0 0 C2.64 0 5.28 0 8 0 C9.08598911 2.14452344 10.16880699 4.29055958 11.25 6.4375 C11.55035156 7.02982422 11.85070312 7.62214844 12.16015625 8.23242188 C14.60804019 13.10214843 16.77902221 18.00279997 19 23 C19.33 15.41 19.66 7.82 20 0 C37.62831858 -0.58761062 37.62831858 -0.58761062 44 4 C46.27658154 7.75635954 46.44594596 10.61486475 46 15 C44.86606731 17.53409304 43.52684205 19.66202311 42 22 C41.67 22 41.34 22 41 22 C40.505 18.535 40.505 18.535 40 15 C41.32 14.67 42.64 14.34 44 14 C44 12.02 44 10.04 44 8 C41.525 7.505 41.525 7.505 39 7 C39 5.68 39 4.36 39 3 C33.39 2.67 27.78 2.34 22 2 C22.01160156 3.62550781 22.02320313 5.25101563 22.03515625 6.92578125 C22.04453469 9.05468635 22.05363483 11.1835927 22.0625 13.3125 C22.07087891 14.38435547 22.07925781 15.45621094 22.08789062 16.56054688 C22.09272461 18.10258789 22.09272461 18.10258789 22.09765625 19.67578125 C22.10551147 21.0975769 22.10551147 21.0975769 22.11352539 22.5480957 C22 25 22 25 21 28 C23.31 28 25.62 28 28 28 C28 26.35 28 24.7 28 23 C29.0625 24.8125 29.0625 24.8125 30 27 C29.505 28.485 29.505 28.485 29 30 C23.39 30 17.78 30 12 30 C11.01 28.02 10.02 26.04 9 24 C10.65 23.67 12.3 23.34 14 23 C14.25030977 20.58380177 14.25030977 20.58380177 14 18 C13.01 17.34 12.02 16.68 11 16 C10.33984375 14.01171875 10.33984375 14.01171875 9.9375 11.6875 C9.2789152 8.25621786 8.44582992 5.20148054 7 2 C5.68 2 4.36 2 3 2 C2.67 2.66 2.34 3.32 2 4 C1.34 4 0.68 4 0 4 C-0.66 5.65 -1.32 7.3 -2 9 C-2.33 8.34 -2.66 7.68 -3 7 C-2.06421005 4.64018187 -1.06652192 2.30368736 0 0 Z " fill="#5475D9" transform="translate(413,222)"/>
<path d="M0 0 C1.65 0.33 3.3 0.66 5 1 C5.4803318 2.58298026 5.95921612 4.16639978 6.4375 5.75 C6.83775391 7.07257813 6.83775391 7.07257813 7.24609375 8.421875 C8 11 8 11 8.41015625 13.203125 C8.92515709 15.39610816 8.92515709 15.39610816 12 17 C12.25 19.5625 12.25 19.5625 12 22 C10.45049732 23.54950268 8.90009406 23.21655193 6.74609375 23.31640625 C5.89208984 23.35830078 5.03808594 23.40019531 4.15820312 23.44335938 C2.81145508 23.50233398 2.81145508 23.50233398 1.4375 23.5625 C0.53580078 23.60568359 -0.36589844 23.64886719 -1.29492188 23.69335938 C-3.52978485 23.79978142 -5.76476308 23.90179988 -8 24 C-8.97608217 21.07175348 -9.08226668 19.04386724 -9 16 C-8.34 16 -7.68 16 -7 16 C-6.896875 14.783125 -6.79375 13.56625 -6.6875 12.3125 C-6.22572682 8.59852427 -5.34666887 6.00373615 -3 3 C-2.34 3 -1.68 3 -1 3 C-0.67 2.01 -0.34 1.02 0 0 Z M1 12 C0.67 12.99 0.34 13.98 0 15 C0.99 14.67 1.98 14.34 3 14 C2.34 13.34 1.68 12.68 1 12 Z " fill="#4E73F6" transform="translate(416,223)"/>
<path d="M0 0 C1.32 0 2.64 0 4 0 C5.32 2.31 6.64 4.62 8 7 C8.31453125 6.4946875 8.6290625 5.989375 8.953125 5.46875 C9.59507812 4.49421875 9.59507812 4.49421875 10.25 3.5 C10.66765625 2.8503125 11.0853125 2.200625 11.515625 1.53125 C12.00546875 1.0259375 12.4953125 0.520625 13 0 C14.32 0 15.64 0 17 0 C17 4.95 17 9.9 17 15 C15.68 15 14.36 15 13 15 C12.67 13.35 12.34 11.7 12 10 C11.34 11.32 10.68 12.64 10 14 C8.0625 13.625 8.0625 13.625 6 13 C5.67 12.34 5.34 11.68 5 11 C4.67 12.32 4.34 13.64 4 15 C2.35 15 0.7 15 -1 15 C-1.02685412 12.68756208 -1.04632841 10.3750373 -1.0625 8.0625 C-1.07410156 6.77472656 -1.08570313 5.48695313 -1.09765625 4.16015625 C-1 1 -1 1 0 0 Z " fill="#4E6BE2" transform="translate(260,277)"/>
<path d="M0 0 C0.61875 0.33 1.2375 0.66 1.875 1 C2.205 0.34 2.535 -0.32 2.875 -1 C11.125 -1 19.375 -1 27.875 -1 C28.37 -0.01 28.37 -0.01 28.875 1 C28.318125 0.98839844 27.76125 0.97679687 27.1875 0.96484375 C21.98346869 0.9033096 16.97972111 0.92532187 11.875 2 C11.56304687 2.64066406 11.25109375 3.28132812 10.9296875 3.94140625 C9.875 6 9.875 6 7.81640625 7.01171875 C6.63884766 7.34623047 6.63884766 7.34623047 5.4375 7.6875 C4.65503906 7.91824219 3.87257813 8.14898437 3.06640625 8.38671875 C1.98166016 8.69029297 1.98166016 8.69029297 0.875 9 C-0.115 9.33 -1.105 9.66 -2.125 10 C-2.785 9.34 -3.445 8.68 -4.125 8 C-3.485625 7.896875 -2.84625 7.79375 -2.1875 7.6875 C-1.506875 7.460625 -0.82625 7.23375 -0.125 7 C0.205 6.01 0.535 5.02 0.875 4 C-0.94398636 1.76372259 -0.94398636 1.76372259 -3.55078125 1.734375 C-4.97970703 1.74210938 -4.97970703 1.74210938 -6.4375 1.75 C-7.38238281 1.74484375 -8.32726562 1.7396875 -9.30078125 1.734375 C-12.25109489 2.01185955 -14.44419144 2.76946492 -17.125 4 C-16.795 4.99 -16.465 5.98 -16.125 7 C-17.445 7.33 -18.765 7.66 -20.125 8 C-20.125 8.99 -20.125 9.98 -20.125 11 C-20.785 11 -21.445 11 -22.125 11 C-22.455 12.32 -22.785 13.64 -23.125 15 C-24.125 13 -24.125 13 -23.5 9.6875 C-21.77900362 5.07210062 -19.48755592 2.42748115 -15.26953125 -0.12109375 C-10.47819829 -2.0847548 -4.83896813 -1.5484698 0 0 Z " fill="#5577E3" transform="translate(338.125,223)"/>
<path d="M0 0 C6.27 0 12.54 0 19 0 C19 1.32 19 2.64 19 4 C18.13375 3.938125 17.2675 3.87625 16.375 3.8125 C12.55800967 4.02455502 10.28922464 5.12044307 7 7 C7 7.99 7 8.98 7 10 C10.3 10.33 13.6 10.66 17 11 C17 12.32 17 13.64 17 15 C13.37 15 9.74 15 6 15 C5.67 14.01 5.34 13.02 5 12 C3.35 12.33 1.7 12.66 0 13 C0 8.71 0 4.42 0 0 Z " fill="#4F72F9" transform="translate(293,224)"/>
<path d="M0 0 C0.33 0 0.66 0 1 0 C1 22.11 1 44.22 1 67 C2.65 67 4.3 67 6 67 C6.70763136 64.00617503 7.35865649 61.00848408 8 58 C8.26425781 56.87851562 8.52851563 55.75703125 8.80078125 54.6015625 C11.70518031 40.80910821 11.29050487 27.03808897 11 13 C11.66 13.33 12.32 13.66 13 14 C13.04993675 18.51658714 13.08597002 23.03302226 13.10986328 27.54980469 C13.11983806 29.08205978 13.13342276 30.61429625 13.15087891 32.14648438 C13.32189631 47.55817066 13.32189631 47.55817066 11.43310547 55.12158203 C10.88766274 57.16593329 10.88766274 57.16593329 11 60 C10.34 60 9.68 60 9 60 C8.87625 60.7425 8.7525 61.485 8.625 62.25 C8.04513299 64.80141485 7.26291261 66.7267573 6 69 C4.02 69 2.04 69 0 69 C0 46.23 0 23.46 0 0 Z " fill="#586FD2" transform="translate(168,226)"/>
<path d="M0 0 C1.65 0 3.3 0 5 0 C5 5.28 5 10.56 5 16 C-3.17413905 17.3222872 -3.17413905 17.3222872 -6.5625 16 C-8.7576472 12.94588215 -8.45650376 10.6520301 -8 7 C-6.8125 5.0625 -6.8125 5.0625 -5 4 C-2.3125 3.8125 -2.3125 3.8125 0 4 C0 2.68 0 1.36 0 0 Z M-3 8 C-3.33 9.32 -3.66 10.64 -4 12 C-2.68 12 -1.36 12 0 12 C0 10.68 0 9.36 0 8 C-0.99 8 -1.98 8 -3 8 Z " fill="#506BE5" transform="translate(317,276)"/>
<path d="M0 0 C0.66 1.32 1.32 2.64 2 4 C2.66 4 3.32 4 4 4 C4.33 5.32 4.66 6.64 5 8 C5.598125 8.144375 6.19625 8.28875 6.8125 8.4375 C8.56150404 8.8872439 10.28677023 9.42892341 12 10 C12.66 8.68 13.32 7.36 14 6 C14.99 6 15.98 6 17 6 C17 5.34 17 4.68 17 4 C20 2 20 2 22.5 2.125 C25.48191427 3.16867 26.3747545 4.34828366 28 7 C23.9870957 11.45878255 21.04925197 12.83736095 15.0625 13.3125 C10.39538798 13.16336296 6.97298603 11.85845914 3.51953125 8.60546875 C0.69815776 5.483781 0 4.31709643 0 0 Z " fill="#5375F6" transform="translate(315,239)"/>
<path d="M0 0 C0.66 0 1.32 0 2 0 C2.33 5.61 2.66 11.22 3 17 C6.04213267 18.52106634 9.28047572 18.37429338 12.625 18.5625 C13.33140625 18.60568359 14.0378125 18.64886719 14.765625 18.69335938 C16.51018537 18.79944751 18.25506697 18.90022889 20 19 C20.33 20.32 20.66 21.64 21 23 C20.08476562 23.02578125 19.16953125 23.0515625 18.2265625 23.078125 C16.44378906 23.16320312 16.44378906 23.16320312 14.625 23.25 C13.44164062 23.29640625 12.25828125 23.3428125 11.0390625 23.390625 C7.88708247 23.65648799 7.88708247 23.65648799 6.5859375 26.046875 C6.39257812 26.69140625 6.19921875 27.3359375 6 28 C4.0625 27.4375 4.0625 27.4375 2 26 C1.59270772 23.67843403 1.25561323 21.3431213 1 19 C0.34 18.67 -0.32 18.34 -1 18 C-0.505 9.09 -0.505 9.09 0 0 Z " fill="#4F70FA" transform="translate(267,205)"/>
<path d="M0 0 C7.59 0 15.18 0 23 0 C23 2.64 23 5.28 23 8 C18.71 8 14.42 8 10 8 C16.68085106 4.65957447 16.68085106 4.65957447 21 6 C21 4.68 21 3.36 21 2 C14.73 2 8.46 2 2 2 C2.11342562 6.29226439 2.24018537 10.58340085 2.375 14.875 C2.4059375 16.09832031 2.436875 17.32164062 2.46875 18.58203125 C2.50742187 19.74863281 2.54609375 20.91523438 2.5859375 22.1171875 C2.6173584 23.19597168 2.6487793 24.27475586 2.68115234 25.38623047 C2.74676322 28.15761654 2.74676322 28.15761654 5 30 C3.35 29.67 1.7 29.34 0 29 C0 19.43 0 9.86 0 0 Z " fill="#567DD9" transform="translate(291,222)"/>
<path d="M0 0 C0.66 1.32 1.32 2.64 2 4 C-1.07322544 4.91058531 -3.80097361 5.08886184 -7 5 C-7 6.65 -7 8.3 -7 10 C-3.98968256 10.93423645 -3.13349732 11.04449911 0 10 C0.66 10.33 1.32 10.66 2 11 C1.67 12.32 1.34 13.64 1 15 C-6.14713095 16.45365375 -6.14713095 16.45365375 -9.9375 14.4375 C-12.44384697 11.47545358 -13 9.87132919 -13 6 C-9.87694646 -0.69225758 -6.74725337 -0.10882667 0 0 Z " fill="#4E6AE1" transform="translate(281,305)"/>
<path d="M0 0 C3.4375 0.8125 3.4375 0.8125 5.4375 3.8125 C5.4375 5.1325 5.4375 6.4525 5.4375 7.8125 C4.7775 7.8125 4.1175 7.8125 3.4375 7.8125 C3.7675 8.8025 4.0975 9.7925 4.4375 10.8125 C1.4375 12.8125 1.4375 12.8125 -2.125 12.625 C-5.5625 11.8125 -5.5625 11.8125 -7.5625 8.8125 C-7.375 5.25 -7.375 5.25 -6.5625 1.8125 C-3.5625 -0.1875 -3.5625 -0.1875 0 0 Z " fill="#516CE0" transform="translate(299.5625,308.1875)"/>
<path d="M0 0 C3.4375 0.8125 3.4375 0.8125 5.4375 3.8125 C5.4375 5.1325 5.4375 6.4525 5.4375 7.8125 C4.7775 7.8125 4.1175 7.8125 3.4375 7.8125 C3.7675 8.8025 4.0975 9.7925 4.4375 10.8125 C1.4375 12.8125 1.4375 12.8125 -2.125 12.625 C-5.5625 11.8125 -5.5625 11.8125 -7.5625 8.8125 C-7.375 5.25 -7.375 5.25 -6.5625 1.8125 C-3.5625 -0.1875 -3.5625 -0.1875 0 0 Z " fill="#536DDA" transform="translate(294.5625,280.1875)"/>
<path d="M0 0 C3.609375 -0.020625 7.21875 -0.04125 10.9375 -0.0625 C12.07695068 -0.071604 13.21640137 -0.08070801 14.39038086 -0.09008789 C15.28120361 -0.09258545 16.17202637 -0.09508301 17.08984375 -0.09765625 C18.46450806 -0.10551147 18.46450806 -0.10551147 19.86694336 -0.11352539 C22 0 22 0 23 1 C23.04092937 3.33297433 23.04241723 5.66705225 23 8 C18.71 8 14.42 8 10 8 C10 7.67 10 7.34 10 7 C13.63 7 17.26 7 21 7 C21.33 5.35 21.66 3.7 22 2 C15.07 1.67 8.14 1.34 1 1 C1 10.24 1 19.48 1 29 C6.28 29 11.56 29 17 29 C17 29.33 17 29.66 17 30 C12.54178834 30.08674429 8.08379196 30.14030513 3.625 30.1875 C2.35398437 30.21263672 1.08296875 30.23777344 -0.2265625 30.26367188 C-1.43828125 30.27333984 -2.65 30.28300781 -3.8984375 30.29296875 C-5.01911621 30.3086792 -6.13979492 30.32438965 -7.29443359 30.34057617 C-8.18727051 30.22818604 -9.08010742 30.1157959 -10 30 C-10.66 29.01 -11.32 28.02 -12 27 C-10.02 27.66 -8.04 28.32 -6 29 C-6.33 28.01 -6.66 27.02 -7 26 C-6.34 26 -5.68 26 -5 26 C-5.33 24.68 -5.66 23.36 -6 22 C-4.35 23.65 -2.7 25.3 -1 27 C-0.67 18.09 -0.34 9.18 0 0 Z " fill="#5878C7" transform="translate(461,222)"/>
<path d="M0 0 C2.11740745 1.51243389 2.86091032 2.6469262 3.8125 5.0625 C3.874375 5.701875 3.93625 6.34125 4 7 C3.34 7.66 2.68 8.32 2 9 C2 9.99 2 10.98 2 12 C-1.45208918 12.88309258 -3.47296338 13.18331708 -6.875 12 C-9 10 -9 10 -9.5625 6.5 C-9 3 -9 3 -7.3125 1.0625 C-4.58181113 -0.19214083 -2.97067849 -0.45702746 0 0 Z " fill="#4E74EE" transform="translate(363,308)"/>
<path d="M0 0 C0.99773437 0.02320313 1.99546875 0.04640625 3.0234375 0.0703125 C4.52777344 0.09738281 4.52777344 0.09738281 6.0625 0.125 C6.83335937 0.14820313 7.60421875 0.17140625 8.3984375 0.1953125 C7.7590625 0.4840625 7.1196875 0.7728125 6.4609375 1.0703125 C4.24637671 2.02354701 4.24637671 2.02354701 3.3984375 4.1953125 C2.4084375 4.1953125 1.4184375 4.1953125 0.3984375 4.1953125 C1.0584375 6.1753125 1.7184375 8.1553125 2.3984375 10.1953125 C3.10871094 10.24429688 3.81898438 10.29328125 4.55078125 10.34375 C5.92943359 10.45589844 5.92943359 10.45589844 7.3359375 10.5703125 C8.25246094 10.63992187 9.16898437 10.70953125 10.11328125 10.78125 C11.24443359 10.98621094 11.24443359 10.98621094 12.3984375 11.1953125 C12.7284375 11.8553125 13.0584375 12.5153125 13.3984375 13.1953125 C13.0684375 13.8553125 12.7384375 14.5153125 12.3984375 15.1953125 C10.11328125 15.828125 10.11328125 15.828125 7.3359375 16.3203125 C6.41683594 16.48789063 5.49773437 16.65546875 4.55078125 16.828125 C3.84050781 16.94929688 3.13023437 17.07046875 2.3984375 17.1953125 C2.3984375 16.5353125 2.3984375 15.8753125 2.3984375 15.1953125 C1.7384375 15.1953125 1.0784375 15.1953125 0.3984375 15.1953125 C0.0684375 13.5453125 -0.2615625 11.8953125 -0.6015625 10.1953125 C-1.9215625 10.1953125 -3.2415625 10.1953125 -4.6015625 10.1953125 C-4.796875 4.140625 -4.796875 4.140625 -4.6015625 2.1953125 C-2.6015625 0.1953125 -2.6015625 0.1953125 0 0 Z " fill="#4D70F9" transform="translate(467.6015625,223.8046875)"/>
<path d="M0 0 C1.588125 -0.061875 3.17625 -0.12375 4.8125 -0.1875 C6.15248047 -0.23970703 6.15248047 -0.23970703 7.51953125 -0.29296875 C10 0 10 0 11.8125 1.21875 C13.34760072 3.52140108 13.30675377 4.94466334 13.1875 7.6875 C13.16042969 8.49574219 13.13335937 9.30398438 13.10546875 10.13671875 C13.07066406 10.75160156 13.03585937 11.36648438 13 12 C12.01 12.495 12.01 12.495 11 13 C10.34 12.67 9.68 12.34 9 12 C8.40644386 9.35139573 8.25790731 6.70802678 8 4 C7.01 4 6.02 4 5 4 C5 6.64 5 9.28 5 12 C4.01 12.495 4.01 12.495 3 13 C2.01 12.67 1.02 12.34 0 12 C0 8.04 0 4.08 0 0 Z " fill="#4E69D8" transform="translate(314,308)"/>
<path d="M0 0 C0.99 0.66 1.98 1.32 3 2 C3.29296875 4.3828125 3.29296875 4.3828125 3.1875 7.125 C3.16042969 8.03507812 3.13335937 8.94515625 3.10546875 9.8828125 C3.07066406 10.58148438 3.03585937 11.28015625 3 12 C-4.625 13.25 -4.625 13.25 -8 11 C-8.1875 8.5625 -8.1875 8.5625 -8 6 C-8 5.01 -8 4.02 -8 3 C-8 2.34 -8 1.68 -8 1 C-5.22899606 -0.38550197 -3.0665294 -0.1877467 0 0 Z " fill="#4C6EEE" transform="translate(375,280)"/>
<path d="M0 0 C-0.99 0.33 -1.98 0.66 -3 1 C-3 1.66 -3 2.32 -3 3 C-6.08888522 5.05925681 -6.70935927 5.2390374 -10.1875 5.125 C-12.0746875 5.063125 -12.0746875 5.063125 -14 5 C-14 7.97 -14 10.94 -14 14 C-15.98 14 -17.96 14 -20 14 C-19.98952637 14.66418945 -19.97905273 15.32837891 -19.96826172 16.01269531 C-19.63455243 40.36924918 -19.63455243 40.36924918 -22 50 C-22.33 50 -22.66 50 -23 50 C-23.02694851 48.04174127 -23.04637218 46.08337774 -23.0625 44.125 C-23.07410156 43.03445313 -23.08570313 41.94390625 -23.09765625 40.8203125 C-23 38 -23 38 -22 36 C-21.84733388 34.26131256 -21.75067404 32.51752499 -21.68359375 30.7734375 C-21.64169922 29.7421875 -21.59980469 28.7109375 -21.55664062 27.6484375 C-21.51732422 26.56820313 -21.47800781 25.48796875 -21.4375 24.375 C-21.39431641 23.28703125 -21.35113281 22.1990625 -21.30664062 21.078125 C-21.2003547 18.3855483 -21.09831943 15.69287747 -21 13 C-19.35 12.67 -17.7 12.34 -16 12 C-16.33 10.02 -16.66 8.04 -17 6 C-16.38125 5.7525 -15.7625 5.505 -15.125 5.25 C-12.84323684 4.19301825 -12.84323684 4.19301825 -12.1484375 1.97265625 C-11 0 -11 0 -8.90625 -0.64453125 C-8.1121875 -0.69996094 -7.318125 -0.75539062 -6.5 -0.8125 C-5.7059375 -0.88082031 -4.911875 -0.94914063 -4.09375 -1.01953125 C-2 -1 -2 -1 0 0 Z " fill="#5574E9" transform="translate(210,238)"/>
<path d="M0 0 C0.33 0.66 0.66 1.32 1 2 C0.04287109 2.07347656 0.04287109 2.07347656 -0.93359375 2.1484375 C-1.75988281 2.22320312 -2.58617187 2.29796875 -3.4375 2.375 C-4.67306641 2.47941406 -4.67306641 2.47941406 -5.93359375 2.5859375 C-6.95646484 2.79089844 -6.95646484 2.79089844 -8 3 C-9.81896973 6.63793946 -9.25254202 10.24237393 -8 14 C-8.66 14 -9.32 14 -10 14 C-10.33 14.66 -10.66 15.32 -11 16 C-10.67 16.99 -10.34 17.98 -10 19 C-7.11584117 20.44207941 -4.58278472 20.09394887 -1.375 20.0625 C0.40777344 20.04896484 0.40777344 20.04896484 2.2265625 20.03515625 C3.59941406 20.01775391 3.59941406 20.01775391 5 20 C4.67 20.66 4.34 21.32 4 22 C-0.60439283 23.53479761 -5.41037644 23.95746618 -10.0390625 22.24609375 C-13.42324384 20.40999537 -16.21718297 18.45420799 -18 15 C-17.67 14.01 -17.34 13.02 -17 12 C-16.67 13.32 -16.34 14.64 -16 16 C-15.34 16 -14.68 16 -14 16 C-13.89042969 15.16855469 -13.78085937 14.33710938 -13.66796875 13.48046875 C-13.50941406 12.39378906 -13.35085938 11.30710938 -13.1875 10.1875 C-13.03667969 9.10855469 -12.88585937 8.02960938 -12.73046875 6.91796875 C-11.97272062 3.89102836 -11.48190329 2.80884477 -9 1 C-5.8035914 -0.06546953 -3.34252724 -0.07427838 0 0 Z " fill="#5476DC" transform="translate(395,229)"/>
<path d="M0 0 C0 1.32 0 2.64 0 4 C-1.98 4 -3.96 4 -6 4 C-6 5.32 -6 6.64 -6 8 C-4.35 7.34 -2.7 6.68 -1 6 C-0.34 7.32 0.32 8.64 1 10 C-1.63390925 11.72217143 -2.92411417 12.00455315 -6.125 11.8125 C-9 11 -9 11 -11 8 C-10.8125 4.4375 -10.8125 4.4375 -10 1 C-6.1496895 -1.56687367 -4.41430237 -0.83288724 0 0 Z " fill="#4F6BE7" transform="translate(357,281)"/>
<path d="M0 0 C0.33 0 0.66 0 1 0 C1.01417969 0.94359375 1.02835938 1.8871875 1.04296875 2.859375 C1.34555403 11.00464351 2.37739266 17.22563162 5.94140625 24.70703125 C7 27 7 27 7 29 C6.34 29 5.68 29 5 29 C2.45923785 25.46502658 1.17404705 21.79618258 -0.05859375 17.671875 C-0.86886444 15.81755461 -0.86886444 15.81755461 -2.91015625 15.265625 C-5.14490001 14.9369558 -5.14490001 14.9369558 -8 15 C-5.36 10.05 -2.72 5.1 0 0 Z " fill="#B3DBEF" transform="translate(187,309)"/>
<path d="M0 0 C3.47899448 0.48808079 6.20027583 0.55677476 9.625 -0.4375 C10.285 1.2125 10.945 2.8625 11.625 4.5625 C7.10100884 7.16405612 2.73317765 7.41248756 -2.375 6.5625 C-4.65973292 5.10857905 -5.72171154 3.76688462 -7.375 1.5625 C-4.04698496 -0.6561767 -3.69344474 -0.61137225 0 0 Z " fill="#5173F9" transform="translate(389.375,243.4375)"/>
<path d="M0 0 C1.05638672 0.00902344 2.11277344 0.01804687 3.20117188 0.02734375 C5.78019253 0.0506833 8.3587199 0.08342225 10.9375 0.125 C10.9375 0.455 10.9375 0.785 10.9375 1.125 C4.6675 1.455 -1.6025 1.785 -8.0625 2.125 C-5.7525 2.785 -3.4425 3.445 -1.0625 4.125 C-1.0625 4.455 -1.0625 4.785 -1.0625 5.125 C-2.07570312 5.25777344 -3.08890625 5.39054687 -4.1328125 5.52734375 C-5.48438204 5.70567584 -6.83594414 5.88406425 -8.1875 6.0625 C-8.85265625 6.14951172 -9.5178125 6.23652344 -10.203125 6.32617188 C-14.17080188 6.85130558 -18.11876998 7.44314014 -22.0625 8.125 C-21.7325 7.465 -21.4025 6.805 -21.0625 6.125 C-19 5.5 -19 5.5 -17.0625 5.125 C-19.3725 4.795 -21.6825 4.465 -24.0625 4.125 C-16.90155931 -0.64896046 -8.31892021 -0.13646178 0 0 Z " fill="#566DDA" transform="translate(182.0625,90.875)"/>
<path d="M0 0 C-0.33 1.65 -0.66 3.3 -1 5 C-3.3431213 4.74438677 -5.67843403 4.40729228 -8 4 C-8.33 3.34 -8.66 2.68 -9 2 C-9.33 2.639375 -9.66 3.27875 -10 3.9375 C-13.02329832 7.0552764 -15.73656724 6.72043064 -20 7 C-18.125 1.125 -18.125 1.125 -17 0 C-4.02631579 -2.01315789 -4.02631579 -2.01315789 0 0 Z " fill="#5271FB" transform="translate(367,224)"/>
<path d="M0 0 C0.66 0 1.32 0 2 0 C2 8.58 2 17.16 2 26 C1.34 25.67 0.68 25.34 0 25 C-0.59765625 22.75 -0.59765625 22.75 -1.0625 20 C-1.4045351 16.69940294 -1.4045351 16.69940294 -3 14 C-2.96206177 12.01845715 -2.84489394 10.03814636 -2.6875 8.0625 C-2.60886719 6.98097656 -2.53023437 5.89945313 -2.44921875 4.78515625 C-2 2 -2 2 0 0 Z " fill="#556FEC" transform="translate(133,123)"/>
<path d="M0 0 C1.39456452 0.00667256 2.78911118 0.01863093 4.18359375 0.03515625 C4.89451172 0.03966797 5.60542969 0.04417969 6.33789062 0.04882812 C8.09899388 0.06064761 9.86005411 0.07858362 11.62109375 0.09765625 C8.80768854 2.91106146 6.52553679 2.76677125 2.62109375 3.09765625 C0.97109375 2.76765625 -0.67890625 2.43765625 -2.37890625 2.09765625 C-2.37890625 10.67765625 -2.37890625 19.25765625 -2.37890625 28.09765625 C-3.03890625 28.42765625 -3.69890625 28.75765625 -4.37890625 29.09765625 C-4.40356506 25.12834636 -4.42174648 21.15906591 -4.43383789 17.18969727 C-4.43887682 15.83845239 -4.44570802 14.48721299 -4.4543457 13.13598633 C-4.46643044 11.19745191 -4.47160453 9.25887825 -4.4765625 7.3203125 C-4.48179932 6.15250244 -4.48703613 4.98469238 -4.49243164 3.78149414 C-4.32347323 -0.21282801 -4.10263002 0.11857312 0 0 Z " fill="#5775C1" transform="translate(243.37890625,221.90234375)"/>
<path d="M0 0 C1.32 0 2.64 0 4 0 C4 0.99 4 1.98 4 3 C4.99 3 5.98 3 7 3 C7 3.99 7 4.98 7 6 C6.01 6 5.02 6 4 6 C4 7.65 4 9.3 4 11 C4.99 11 5.98 11 7 11 C6.67 12.32 6.34 13.64 6 15 C1.125 14.125 1.125 14.125 0 13 C-0.04092937 10.66702567 -0.04241723 8.33294775 0 6 C-0.66 6 -1.32 6 -2 6 C-1.49396008 3.83125748 -1.00016187 2.00032373 0 0 Z " fill="#5570E0" transform="translate(338,306)"/>
<path d="M0 0 C0 4.95 0 9.9 0 15 C-1.32 15 -2.64 15 -4 15 C-4 13.02 -4 11.04 -4 9 C-4.66 9 -5.32 9 -6 9 C-6.93131785 5.95205066 -7.29757762 4.57949326 -5.8125 1.6875 C-4 0 -4 0 0 0 Z " fill="#576FD6" transform="translate(277,277)"/>
<path d="M0 0 C0.33 0.99 0.66 1.98 1 3 C-3.455 3.495 -3.455 3.495 -8 4 C-8 10.93 -8 17.86 -8 25 C-10.97 25 -13.94 25 -17 25 C-17 18.07 -17 11.14 -17 4 C-16.67 4 -16.34 4 -16 4 C-16 10.6 -16 17.2 -16 24 C-14.02 23.67 -12.04 23.34 -10 23 C-10 21.96359375 -10 20.9271875 -10 19.859375 C-10 4 -10 4 -8.375 2.1875 C-5.22873707 0.61436853 -3.34431617 1.16392096 0 2 C0 1.34 0 0.68 0 0 Z " fill="#5872C6" transform="translate(366,227)"/>
<path d="M0 0 C2.64 0 5.28 0 8 0 C8 1.32 8 2.64 8 4 C7.01 4.495 7.01 4.495 6 5 C5.835 6.155 5.67 7.31 5.5 8.5 C5.335 9.655 5.17 10.81 5 12 C4.01 12.495 4.01 12.495 3 13 C2.01 12.67 1.02 12.34 0 12 C0 8.04 0 4.08 0 0 Z " fill="#506FEB" transform="translate(376,308)"/>
<path d="M0 0 C6.6 0 13.2 0 20 0 C20 2.64 20 5.28 20 8 C15.71 8 11.42 8 7 8 C7 7.34 7 6.68 7 6 C10.63 6 14.26 6 18 6 C17.67 5.01 17.34 4.02 17 3 C15.94039063 2.95101562 14.88078125 2.90203125 13.7890625 2.8515625 C12.40101503 2.77653291 11.01299549 2.70098515 9.625 2.625 C8.92632812 2.5940625 8.22765625 2.563125 7.5078125 2.53125 C2.2265625 2.2265625 2.2265625 2.2265625 0 0 Z " fill="#547BDD" transform="translate(270,222)"/>
<path d="M0 0 C2.56278699 -0.05420701 5.12441483 -0.09377007 7.6875 -0.125 C8.40873047 -0.14175781 9.12996094 -0.15851563 9.87304688 -0.17578125 C14.04876781 -0.21391569 17.2494138 0.1210081 21 2 C21 2.33 21 2.66 21 3 C15.06 2.67 9.12 2.34 3 2 C2.87625 3.753125 2.7525 5.50625 2.625 7.3125 C2.35277339 11.16904361 2.18994248 12.71508627 0 16 C-1.52634923 12.94730154 -0.83794444 10.24154311 -0.5625 6.875 C-0.46066406 5.59367188 -0.35882813 4.31234375 -0.25390625 2.9921875 C-0.12822266 1.51105469 -0.12822266 1.51105469 0 0 Z " fill="#5B7CDB" transform="translate(187,222)"/>
<path d="M0 0 C0.66 0 1.32 0 2 0 C1.98952637 0.61931396 1.97905273 1.23862793 1.96826172 1.87670898 C1.92623901 4.73026335 1.90052873 7.58375226 1.875 10.4375 C1.85824219 11.41138672 1.84148437 12.38527344 1.82421875 13.38867188 C1.78274846 19.58848075 2.42400301 25.00004295 4 31 C3.01 30.01 2.02 29.02 1 28 C0.67 29.65 0.34 31.3 0 33 C-3.84160316 27.23759526 -4.23538321 21.70842135 -4 15 C-3.67 15 -3.34 15 -3 15 C-2.34 18.3 -1.68 21.6 -1 25 C-0.67 16.75 -0.34 8.5 0 0 Z " fill="#5770D7" transform="translate(135,123)"/>
<path d="M0 0 C2.475 0.495 2.475 0.495 5 1 C4.83628906 1.53109375 4.67257812 2.0621875 4.50390625 2.609375 C3.88643623 5.53876764 3.90498075 8.25822936 3.9375 11.25 C3.95103516 12.86648438 3.95103516 12.86648438 3.96484375 14.515625 C3.97644531 15.33546875 3.98804688 16.1553125 4 17 C2.68 17 1.36 17 0 17 C0 11.39 0 5.78 0 0 Z " fill="#5472EC" transform="translate(332,275)"/>
<path d="M0 0 C0.99 0.33 1.98 0.66 3 1 C3.34342449 2.33076989 3.67619874 3.66431979 4 5 C4.99 5.66 5.98 6.32 7 7 C7.1875 9.625 7.1875 9.625 7 12 C5.1875 12.6875 5.1875 12.6875 3 13 C1.4375 11.5625 1.4375 11.5625 0 10 C-0.99 10 -1.98 10 -3 10 C-2.40072174 6.64404172 -1.15377564 4.62198774 1 2 C0.34 1.67 -0.32 1.34 -1 1 C-0.67 0.67 -0.34 0.34 0 0 Z " fill="#5271FC" transform="translate(421,233)"/>
<path d="M0 0 C-0.33 0.66 -0.66 1.32 -1 2 C-1.61875 2.144375 -2.2375 2.28875 -2.875 2.4375 C-5.09313413 2.80650198 -5.09313413 2.80650198 -6.3125 4.5625 C-8.98301768 6.83738543 -11.63523508 6.19045839 -15 6 C-15 6.66 -15 7.32 -15 8 C-15.99 8 -16.98 8 -18 8 C-17.9375 6.25 -17.9375 6.25 -17 4 C-11.41628776 -0.27688597 -6.8878758 -0.49892058 0 0 Z " fill="#5270F0" transform="translate(166,95)"/>
<path d="M0 0 C1.32 0 2.64 0 4 0 C4 5.28 4 10.56 4 16 C3.34 16.33 2.68 16.66 2 17 C1.34 16.67 0.68 16.34 0 16 C0 10.72 0 5.44 0 0 Z " fill="#596FD7" transform="translate(389,276)"/>
<path d="M0 0 C2.31 0 4.62 0 7 0 C7.6875 1.8125 7.6875 1.8125 8 4 C6.5625 5.75 6.5625 5.75 5 7 C4.01 6.67 3.02 6.34 2 6 C2 6.66 2 7.32 2 8 C3.32 8.33 4.64 8.66 6 9 C3.6739143 9.38063221 1.33944736 9.71269945 -1 10 C-2 9 -2 9 -2.1875 6.6875 C-1.9945637 3.9220797 -1.39825155 2.35954949 0 0 Z " fill="#4E6EF6" transform="translate(290,282)"/>
<path d="M0 0 C0.66 0 1.32 0 2 0 C2 0.99 2 1.98 2 3 C5.96 3 9.92 3 14 3 C14 5.64 14 8.28 14 11 C10.37 11 6.74 11 3 11 C5 9 5 9 8.625 8.875 C10.295625 8.936875 10.295625 8.936875 12 9 C12 8.01 12 7.02 12 6 C8.7 5.67 5.4 5.34 2 5 C1.34 3.35 0.68 1.7 0 0 Z " fill="#5D7DD6" transform="translate(468,230)"/>
<path d="M0 0 C1.16402344 -0.02126953 1.16402344 -0.02126953 2.3515625 -0.04296875 C4.375 0.1875 4.375 0.1875 6.375 2.1875 C3.96536145 7.8501506 3.96536145 7.8501506 1.625 9.1875 C-1.66892798 9.1875 -4.51409637 8.20452619 -7.625 7.1875 C-7.955 5.2075 -8.285 3.2275 -8.625 1.1875 C-5.6969073 0.3518571 -3.04323857 0.02544514 0 0 Z M-3.625 1.1875 C-4.92133621 2.25395115 -4.92133621 2.25395115 -4.6875 4.75 C-4.666875 5.554375 -4.64625 6.35875 -4.625 7.1875 C-2.315 7.1875 -0.005 7.1875 2.375 7.1875 C2.705 5.8675 3.035 4.5475 3.375 3.1875 C0.72761084 1.7268715 -0.51948334 1.1875 -3.625 1.1875 Z " fill="#5476DB" transform="translate(446.625,228.8125)"/>
<path d="M0 0 C0.66 1.32 1.32 2.64 2 4 C2.66 4 3.32 4 4 4 C4.33 5.32 4.66 6.64 5 8 C5.56203125 8.13277344 6.1240625 8.26554688 6.703125 8.40234375 C9.09366153 9.02437111 11.41035775 9.77115041 13.75 10.5625 C14.54921875 10.83191406 15.3484375 11.10132813 16.171875 11.37890625 C16.77515625 11.58386719 17.3784375 11.78882813 18 12 C18 11.34 18 10.68 18 10 C21.465 9.505 21.465 9.505 25 9 C21.9341458 12.35784032 19.79855877 12.94763549 15.1875 13.25 C10.44654604 13.16316934 7.03380166 11.91574457 3.51953125 8.60546875 C0.69815776 5.483781 0 4.31709643 0 0 Z " fill="#597AD7" transform="translate(315,239)"/>
<path d="M0 0 C1.32 0.33 2.64 0.66 4 1 C4 2.32 4 3.64 4 5 C4.66 5 5.32 5 6 5 C8.17364926 7.81769349 9.08677021 9.2190681 8.6875 12.8125 C8.460625 13.534375 8.23375 14.25625 8 15 C7.34 14.01 6.68 13.02 6 12 C5.01 11.67 4.02 11.34 3 11 C2.05078125 9.2578125 2.05078125 9.2578125 1.3125 7.125 C1.06113281 6.42632812 0.80976563 5.72765625 0.55078125 5.0078125 C0 3 0 3 0 0 Z " fill="#5071F5" transform="translate(165,197)"/>
<path d="M0 0 C1.60517097 0.08733576 3.20921662 0.19552224 4.8125 0.3125 C6.15248047 0.39951172 6.15248047 0.39951172 7.51953125 0.48828125 C10.36514559 1.07532925 11.3596983 1.6185653 13 4 C13 5.32 13 6.64 13 8 C11.67476417 7.33738209 10.36163673 6.64992982 9.0625 5.9375 C6.92241195 4.79309853 6.92241195 4.79309853 4 5 C4 4.34 4 3.68 4 3 C3.01 3.33 2.02 3.66 1 4 C0.67 2.68 0.34 1.36 0 0 Z " fill="#5275F8" transform="translate(388,223)"/>
<path d="M0 0 C3.19199167 2.41556126 5.74716687 4.68003538 8 8 C7.67 8.66 7.34 9.32 7 10 C6.01 9.67 5.02 9.34 4 9 C4.33 10.65 4.66 12.3 5 14 C2.49914935 11.62226815 0.41316697 9.04733058 -1.6875 6.3125 C-2.31011719 5.50425781 -2.93273437 4.69601563 -3.57421875 3.86328125 C-4.04472656 3.24839844 -4.51523438 2.63351563 -5 2 C-4.01 2 -3.02 2 -2 2 C-0.9739266 3.31337396 0.02727325 4.64664105 1 6 C1.66 6 2.32 6 3 6 C2.34 5.67 1.68 5.34 1 5 C0.375 2.4375 0.375 2.4375 0 0 Z " fill="#5770DE" transform="translate(161,188)"/>
<path d="M0 0 C1.32 0.33 2.64 0.66 4 1 C3.67 2.65 3.34 4.3 3 6 C1.35 6.33 -0.3 6.66 -2 7 C-2.33 7.99 -2.66 8.98 -3 10 C-3.99 10 -4.98 10 -6 10 C-7.68798827 11.43750191 -7.68798827 11.43750191 -9 13 C-9.66 12.67 -10.32 12.34 -11 12 C-10.54109375 11.63648438 -10.0821875 11.27296875 -9.609375 10.8984375 C-5.56506013 7.58481817 -2.67466686 4.49344033 0 0 Z " fill="#D0EDF2" transform="translate(170,337)"/>
<path d="M0 0 C0.33 0.99 0.66 1.98 1 3 C1.804375 3.268125 2.60875 3.53625 3.4375 3.8125 C6 5 6 5 7.3125 8.125 C7.6528125 9.548125 7.6528125 9.548125 8 11 C6.68 11.33 5.36 11.66 4 12 C-1.05908096 5.92560175 -1.05908096 5.92560175 -0.8125 2.0625 C-0.544375 1.381875 -0.27625 0.70125 0 0 Z " fill="#5272F5" transform="translate(196,327)"/>
<path d="M0 0 C2.70784878 1.9341777 3.44299928 3.76939581 4 7 C3.01 7.495 3.01 7.495 2 8 C2 6.68 2 5.36 2 4 C-2.455 4.495 -2.455 4.495 -7 5 C-7 6.98 -7 8.96 -7 11 C-7.66 10.67 -8.32 10.34 -9 10 C-9.25 6.6875 -9.25 6.6875 -9 3 C-6.34915657 -0.04356098 -3.94419493 -0.60679922 0 0 Z " fill="#516BDE" transform="translate(363,308)"/>
<path d="M0 0 C5.94 0 11.88 0 18 0 C18 0.33 18 0.66 18 1 C16.92878906 1.06058594 15.85757812 1.12117187 14.75390625 1.18359375 C13.35675609 1.26798537 11.95962143 1.35263406 10.5625 1.4375 C9.50192383 1.49647461 9.50192383 1.49647461 8.41992188 1.55664062 C4.91309581 1.47624438 4.91309581 1.47624438 2 3 C1.84213692 4.85174706 1.74892644 6.7090911 1.68359375 8.56640625 C1.64169922 9.69111328 1.59980469 10.81582031 1.55664062 11.97460938 C1.51732422 13.15861328 1.47800781 14.34261719 1.4375 15.5625 C1.39431641 16.75037109 1.35113281 17.93824219 1.30664062 19.16210938 C1.20016454 22.10794784 1.09815159 25.0538743 1 28 C0.67 28 0.34 28 0 28 C0 18.76 0 9.52 0 0 Z " fill="#5A7EEC" transform="translate(462,223)"/>
<path d="M0 0 C4.875 3.75 4.875 3.75 6 6 C6.04022391 8.3329866 6.04320247 10.66706666 6 13 C5.34 13 4.68 13 4 13 C4 12.34 4 11.68 4 11 C3.01 10.67 2.02 10.34 1 10 C-0.60725635 6.78548731 -0.05748185 3.56387464 0 0 Z " fill="#5470E7" transform="translate(135,150)"/>
<path d="M0 0 C0.66 0.33 1.32 0.66 2 1 C1.67 3.64 1.34 6.28 1 9 C-3.95 9 -8.9 9 -14 9 C-14.33 8.34 -14.66 7.68 -15 7 C-10.38 7 -5.76 7 -1 7 C-1.33 5.02 -1.66 3.04 -2 1 C-1.34 0.67 -0.68 0.34 0 0 Z " fill="#536FCD" transform="translate(313,243)"/>
<path d="M0 0 C2.64 0.33 5.28 0.66 8 1 C7.34 2.98 6.68 4.96 6 7 C3.03 7 0.06 7 -3 7 C-2.67 6.01 -2.34 5.02 -2 4 C-1.34 4.33 -0.68 4.66 0 5 C-0.33 4.01 -0.66 3.02 -1 2 C-0.67 1.34 -0.34 0.68 0 0 Z " fill="#5072DF" transform="translate(404,245)"/>
<path d="M0 0 C2.97 0 5.94 0 9 0 C9 0.66 9 1.32 9 2 C8.071875 1.95875 7.14375 1.9175 6.1875 1.875 C2.84190281 1.72863661 2.84190281 1.72863661 0 4 C-0.47558206 5.901994 -0.47558206 5.901994 -0.375 8 C-0.38273437 8.70125 -0.39046875 9.4025 -0.3984375 10.125 C-0.140914 12.41058594 -0.140914 12.41058594 3 14 C3 14.66 3 15.32 3 16 C1 15 -1 14 -3 13 C-3 12.01 -3 11.02 -3 10 C-3.66 9.67 -4.32 9.34 -5 9 C-4.34 8.34 -3.68 7.68 -3 7 C-1.96157435 4.68351201 -0.9578025 2.35096976 0 0 Z " fill="#5B78DD" transform="translate(325,229)"/>
<path d="M0 0 C0.66 0.99 1.32 1.98 2 3 C1.01 3.33 0.02 3.66 -1 4 C-0.67 4.99 -0.34 5.98 0 7 C-1.32 7.33 -2.64 7.66 -4 8 C-4 8.99 -4 9.98 -4 11 C-4.66 11 -5.32 11 -6 11 C-6.33 12.32 -6.66 13.64 -7 15 C-8 13 -8 13 -7.375 9.6875 C-5.87372573 5.66135536 -4.20471671 3.79385559 -1 1 C-0.67 0.67 -0.34 0.34 0 0 Z " fill="#516EDD" transform="translate(322,223)"/>
<path d="M0 0 C2.50276394 3.03496087 3.91612312 5.93195283 5.25 9.625 C5.60578125 10.58664063 5.9615625 11.54828125 6.328125 12.5390625 C7 15 7 15 6 17 C2.64042245 11.40070408 0 6.69793889 0 0 Z M-2 6 C-1.34 6 -0.68 6 0 6 C0 7.32 0 8.64 0 10 C0.66 10 1.32 10 2 10 C2 11.98 2 13.96 2 16 C-0.18975773 12.71536341 -0.99806563 9.79303725 -2 6 Z " fill="#5870D6" transform="translate(255,144)"/>
<path d="M0 0 C2.2265625 0.2890625 2.2265625 0.2890625 5.9140625 1.1015625 C2.77697132 3.72585993 -0.21788218 5.05576397 -4.0859375 6.3515625 C-5.1171875 6.70734375 -6.1484375 7.063125 -7.2109375 7.4296875 C-10.04647549 8.0923404 -11.40363961 8.10742421 -14.0859375 7.1015625 C-13.0340625 6.8746875 -11.9821875 6.6478125 -10.8984375 6.4140625 C-7.67960214 5.53853928 -7.04075167 5.05174223 -4.6484375 2.4140625 C-2.0859375 0.1015625 -2.0859375 0.1015625 0 0 Z " fill="#5973E7" transform="translate(119.0859375,362.8984375)"/>
<path d="M0 0 C2.375 0.6875 2.375 0.6875 5 2 C6.56938028 4.91456338 7 6.67941669 7 10 C7.99 10.33 8.98 10.66 10 11 C6 11 6 11 3.375 8.8125 C1.16361011 6.19374882 0.01711958 4.23628956 -1 1 C-0.67 0.67 -0.34 0.34 0 0 Z " fill="#5371F5" transform="translate(155,183)"/>
<path d="M0 0 C0.33 1.65 0.66 3.3 1 5 C2.32 5 3.64 5 5 5 C5.33 5.99 5.66 6.98 6 8 C3.36 8.33 0.72 8.66 -2 9 C-4.1519437 5.77208445 -4.20086443 4.71599191 -4 1 C-2 0 -2 0 0 0 Z " fill="#4566EC" transform="translate(296,311)"/>
<path d="M0 0 C0 1.98 0 3.96 0 6 C-4.455 7.485 -4.455 7.485 -9 9 C-9.66 8.34 -10.32 7.68 -11 7 C-10.75 3.4375 -10.75 3.4375 -10 0 C-6.7169902 -1.6415049 -3.57454967 -0.51888624 0 0 Z M-8 0 C-8 1.98 -8 3.96 -8 6 C-6.02 6 -4.04 6 -2 6 C-1.67 4.35 -1.34 2.7 -1 1 C-3.31 0.67 -5.62 0.34 -8 0 Z " fill="#5576DB" transform="translate(257,230)"/>
<path d="M0 0 C0.66 0 1.32 0 2 0 C2.33 5.28 2.66 10.56 3 16 C2.01 16.33 1.02 16.66 0 17 C0 11.39 0 5.78 0 0 Z " fill="#5171FA" transform="translate(193,310)"/>
<path d="M0 0 C0.99 0.33 1.98 0.66 3 1 C3 4.63 3 8.26 3 12 C2.01 10.68 1.02 9.36 0 8 C-2.58498512 6.73152315 -2.58498512 6.73152315 -5 6 C-5 5.34 -5 4.68 -5 4 C-3.35 4 -1.7 4 0 4 C0 2.68 0 1.36 0 0 Z " fill="#4768EC" transform="translate(317,276)"/>
<path d="M0 0 C4.95 0 9.9 0 15 0 C12.18659479 2.81340521 9.90444304 2.669115 6 3 C3.0625 2.5625 3.0625 2.5625 1 2 C1 5.3 1 8.6 1 12 C0.67 12 0.34 12 0 12 C0 8.04 0 4.08 0 0 Z " fill="#5176D7" transform="translate(240,222)"/>
<path d="M0 0 C0.66 0 1.32 0 2 0 C2 4.29 2 8.58 2 13 C1.01 13 0.02 13 -1 13 C-1.02686553 11.02090602 -1.04633375 9.04171029 -1.0625 7.0625 C-1.07410156 5.96035156 -1.08570313 4.85820313 -1.09765625 3.72265625 C-1 1 -1 1 0 0 Z " fill="#5270FA" transform="translate(133,123)"/>
<path d="M0 0 C0.66 0.99 1.32 1.98 2 3 C2.66 3.33 3.32 3.66 4 4 C4 3.34 4 2.68 4 2 C4.66 2 5.32 2 6 2 C4.73058503 5.91402949 3.48832306 7.79072873 0 10 C0 8.35 0 6.7 0 5 C-1.65 5.66 -3.3 6.32 -5 7 C-3.35 4.69 -1.7 2.38 0 0 Z " fill="#5A70DF" transform="translate(243,330)"/>
<path d="M0 0 C1.32 0 2.64 0 4 0 C5.20628008 2.33214148 6.1654738 4.49642139 7 7 C5.35 7.66 3.7 8.32 2 9 C0 7 0 7 -0.125 3.375 C-0.08375 2.26125 -0.0425 1.1475 0 0 Z " fill="#4B68F7" transform="translate(259,278)"/>
<path d="M0 0 C1.27617187 0.00483398 1.27617187 0.00483398 2.578125 0.00976562 C3.46757812 0.01814453 4.35703125 0.02652344 5.2734375 0.03515625 C6.170625 0.03966797 7.0678125 0.04417969 7.9921875 0.04882812 C10.21100398 0.06063034 12.42968768 0.0770947 14.6484375 0.09765625 C14.6484375 0.42765625 14.6484375 0.75765625 14.6484375 1.09765625 C6.2334375 1.59265625 6.2334375 1.59265625 -2.3515625 2.09765625 C-3.0115625 3.74765625 -3.6715625 5.39765625 -4.3515625 7.09765625 C-5.0115625 7.09765625 -5.6715625 7.09765625 -6.3515625 7.09765625 C-6.3515625 5.11765625 -6.3515625 3.13765625 -6.3515625 1.09765625 C-4.00303722 -0.07660639 -2.61382185 -0.01742548 0 0 Z " fill="#5579E7" transform="translate(220.3515625,222.90234375)"/>
<path d="M0 0 C-0.33 0.99 -0.66 1.98 -1 3 C-2.7421875 3.80078125 -2.7421875 3.80078125 -4.875 4.3125 C-5.92300781 4.58513672 -5.92300781 4.58513672 -6.9921875 4.86328125 C-9 5 -9 5 -12 3 C-11 1 -11 1 -9.2578125 0.33203125 C-8.55398437 0.16058594 -7.85015625 -0.01085937 -7.125 -0.1875 C-6.42632812 -0.36667969 -5.72765625 -0.54585938 -5.0078125 -0.73046875 C-3 -1 -3 -1 0 0 Z " fill="#5073FE" transform="translate(236,342)"/>
<path d="M0 0 C0.99 0.66 1.98 1.32 3 2 C3.1875 5.125 3.1875 5.125 3 8 C2.34 8 1.68 8 1 8 C0.67 6.35 0.34 4.7 0 3 C-2.41645782 2.83312552 -2.41645782 2.83312552 -5 3 C-5.66 3.66 -6.32 4.32 -7 5 C-7.33 3.68 -7.66 2.36 -8 1 C-5.22899606 -0.38550197 -3.0665294 -0.1877467 0 0 Z " fill="#516BDB" transform="translate(375,280)"/>
<path d="M0 0 C4.875 4.625 4.875 4.625 6 8 C4.37581255 8.08090971 2.75048255 8.13914995 1.125 8.1875 C-0.23238281 8.23970703 -0.23238281 8.23970703 -1.6171875 8.29296875 C-2.79667969 8.14794922 -2.79667969 8.14794922 -4 8 C-4.66 7.01 -5.32 6.02 -6 5 C-4.02 5.66 -2.04 6.32 0 7 C-0.33 6.01 -0.66 5.02 -1 4 C-0.34 4 0.32 4 1 4 C0.67 2.68 0.34 1.36 0 0 Z " fill="#5275D6" transform="translate(455,244)"/>
<path d="M0 0 C0.33 0 0.66 0 1 0 C1.01458252 0.70608398 1.02916504 1.41216797 1.04418945 2.13964844 C1.11873167 5.34364674 1.21537205 8.54661016 1.3125 11.75 C1.33505859 12.86117187 1.35761719 13.97234375 1.38085938 15.1171875 C1.41630859 16.18710938 1.45175781 17.25703125 1.48828125 18.359375 C1.51446533 19.34389648 1.54064941 20.32841797 1.56762695 21.34277344 C2.05559767 24.34168553 3.00048955 25.75607907 5 28 C3.35 27.67 1.7 27.34 0 27 C0 18.09 0 9.18 0 0 Z " fill="#5F7DC4" transform="translate(291,224)"/>
<path d="M0 0 C0.33 0.66 0.66 1.32 1 2 C0.67 2.66 0.34 3.32 0 4 C1.32 4.33 2.64 4.66 4 5 C2.35 7.64 0.7 10.28 -1 13 C-1.66 11.68 -2.32 10.36 -3 9 C-2.01 8.34 -1.02 7.68 0 7 C-1.32 6.67 -2.64 6.34 -4 6 C-2.68 4.02 -1.36 2.04 0 0 Z " fill="#556FDB" transform="translate(251,272)"/>
<path d="M0 0 C2 2 2 2 2.125 4.625 C2.08375 5.40875 2.0425 6.1925 2 7 C0.35 7 -1.3 7 -3 7 C-3.33 5.35 -3.66 3.7 -4 2 C-2.68 1.34 -1.36 0.68 0 0 Z " fill="#5170F9" transform="translate(310,243)"/>
<path d="M0 0 C0.66 0 1.32 0 2 0 C2 0.66 2 1.32 2 2 C3.65 2 5.3 2 7 2 C5.02 2.99 5.02 2.99 3 4 C3 5.98 3 7.96 3 10 C2.34 10 1.68 10 1 10 C1 7.69 1 5.38 1 3 C0.34 3 -0.32 3 -1 3 C-1 4.65 -1 6.3 -1 8 C-1.66 8 -2.32 8 -3 8 C-2.25 2.25 -2.25 2.25 0 0 Z " fill="#566EDA" transform="translate(271,306)"/>
<path d="M0 0 C5.73711481 -0.34422689 10.06983069 -0.36694489 15 3 C16.375 5.1875 16.375 5.1875 17 7 C16.01 7.66 15.02 8.32 14 9 C13.67 7.02 13.34 5.04 13 3 C8.71 2.34 4.42 1.68 0 1 C0 0.67 0 0.34 0 0 Z " fill="#5976CB" transform="translate(387,222)"/>
<path d="M0 0 C0.33 0 0.66 0 1 0 C1 4.62 1 9.24 1 14 C0.34 13.67 -0.32 13.34 -1 13 C-1.484375 10.56640625 -1.484375 10.56640625 -1.75 7.5625 C-1.84796875 6.57378906 -1.9459375 5.58507812 -2.046875 4.56640625 C-2 2 -2 2 0 0 Z " fill="#5171FB" transform="translate(250,308)"/>
<path d="M0 0 C0.66 0 1.32 0 2 0 C2.02578125 1.26457031 2.0515625 2.52914062 2.078125 3.83203125 C2.13440266 5.49222218 2.19175007 7.1523771 2.25 8.8125 C2.26417969 9.64587891 2.27835937 10.47925781 2.29296875 11.33789062 C2.35686919 16.22076162 2.35686919 16.22076162 5.046875 20.07421875 C6.01367188 20.53248047 6.01367188 20.53248047 7 21 C5.02 21 3.04 21 1 21 C0.67 14.07 0.34 7.14 0 0 Z " fill="#577BEA" transform="translate(349,230)"/>
<path d="M0 0 C0.99 0 1.98 0 3 0 C4.60725635 3.21451269 4.05748185 6.43612536 4 10 C3.01 9.67 2.02 9.34 1 9 C0.67 6.03 0.34 3.06 0 0 Z " fill="#4969F0" transform="translate(322,311)"/>
<path d="M0 0 C1.485 0.99 1.485 0.99 3 2 C3.6875 5.625 3.6875 5.625 4 9 C3.01 9 2.02 9 1 9 C-0.61949011 6.42786866 -1.04408751 5.32330841 -0.625 2.25 C-0.41875 1.5075 -0.2125 0.765 0 0 Z " fill="#5270F9" transform="translate(245,299)"/>
<path d="M0 0 C0.66 1.32 1.32 2.64 2 4 C-2.625 8 -2.625 8 -6 8 C-6 6.68 -6 5.36 -6 4 C-3.5625 2.3125 -3.5625 2.3125 -1 1 C-0.67 0.67 -0.34 0.34 0 0 Z " fill="#5472FC" transform="translate(413,235)"/>
<path d="M0 0 C0.87527344 -0.01417969 1.75054687 -0.02835938 2.65234375 -0.04296875 C5.0625 0.1875 5.0625 0.1875 8.0625 2.1875 C3.1125 2.5175 -1.8375 2.8475 -6.9375 3.1875 C-6.9375 2.5275 -6.9375 1.8675 -6.9375 1.1875 C-4.47380468 -0.04434766 -2.7480499 0.02017658 0 0 Z " fill="#5A7AD9" transform="translate(329.9375,221.8125)"/>
<path d="M0 0 C0.66 0.33 1.32 0.66 2 1 C-0.64 3.64 -3.28 6.28 -6 9 C-6.99 7.68 -7.98 6.36 -9 5 C-8.01 4.67 -7.02 4.34 -6 4 C-5.34 4.33 -4.68 4.66 -4 5 C-3.8453125 4.0409375 -3.8453125 4.0409375 -3.6875 3.0625 C-3.460625 2.381875 -3.23375 1.70125 -3 1 C-2.01 0.67 -1.02 0.34 0 0 Z " fill="#5973E4" transform="translate(161,336)"/>
<path d="M0 0 C0.33 0 0.66 0 1 0 C1 3.63 1 7.26 1 11 C-1.475 10.01 -1.475 10.01 -4 9 C-2.68 6.03 -1.36 3.06 0 0 Z " fill="#749BD3" transform="translate(187,309)"/>
<path d="M0 0 C0.33 0.66 0.66 1.32 1 2 C0.0390625 3.9453125 0.0390625 3.9453125 -1.375 6.125 C-1.83648437 6.84945313 -2.29796875 7.57390625 -2.7734375 8.3203125 C-3.17820313 8.87460937 -3.58296875 9.42890625 -4 10 C-4.33 10 -4.66 10 -5 10 C-5 7.36 -5 4.72 -5 2 C-3.35 1.34 -1.7 0.68 0 0 Z " fill="#5472E5" transform="translate(177,313)"/>
<path d="M0 0 C0.33 0.66 0.66 1.32 1 2 C-3.455 2.495 -3.455 2.495 -8 3 C-8.66 5.64 -9.32 8.28 -10 11 C-11.30245593 8.85477846 -12.01434368 7.47334158 -11.9375 4.9375 C-9.53762182 -0.02224824 -4.99559221 -0.34852969 0 0 Z " fill="#5774CD" transform="translate(395,229)"/>
<path d="M0 0 C0 0.33 0 0.66 0 1 C-1.65 1.33 -3.3 1.66 -5 2 C-5.33 3.65 -5.66 5.3 -6 7 C-5.34 7.33 -4.68 7.66 -4 8 C-5.65 7.67 -7.3 7.34 -9 7 C-9.33 5.02 -9.66 3.04 -10 1 C-6.61981469 -0.04005702 -3.5219721 -0.08004482 0 0 Z " fill="#4D70E3" transform="translate(448,229)"/>
<path d="M0 0 C2.64 0 5.28 0 8 0 C8 0.99 8 1.98 8 3 C6.35 2.67 4.7 2.34 3 2 C2.67 2.66 2.34 3.32 2 4 C1.34 4 0.68 4 0 4 C-0.66 5.65 -1.32 7.3 -2 9 C-2.33 8.34 -2.66 7.68 -3 7 C-2.06421005 4.64018187 -1.06652192 2.30368736 0 0 Z " fill="#5475C9" transform="translate(413,222)"/>
<path d="M0 0 C2.475 0.99 2.475 0.99 5 2 C5 3.32 5 4.64 5 6 C3.35 6 1.7 6 0 6 C-0.38218767 4.34385343 -0.71395102 2.67542976 -1 1 C-0.67 0.67 -0.34 0.34 0 0 Z " fill="#4F70F5" transform="translate(206,339)"/>
<path d="M0 0 C1.32 0.33 2.64 0.66 4 1 C3.01 1 2.02 1 1 1 C1.33 3.97 1.66 6.94 2 10 C2.99 9.01 3.98 8.02 5 7 C5 8.65 5 10.3 5 12 C4.01 12.495 4.01 12.495 3 13 C2.01 12.67 1.02 12.34 0 12 C0 8.04 0 4.08 0 0 Z " fill="#4C6DD4" transform="translate(376,308)"/>
<path d="M0 0 C1.65 0 3.3 0 5 0 C4.67 1.98 4.34 3.96 4 6 C3.34 6 2.68 6 2 6 C1.34 7.32 0.68 8.64 0 10 C0 6.7 0 3.4 0 0 Z " fill="#4F6FF0" transform="translate(315,309)"/>
<path d="M0 0 C2.31 0.66 4.62 1.32 7 2 C6.01 2.66 5.02 3.32 4 4 C3.01 5.485 3.01 5.485 2 7 C2 6.01 2 5.02 2 4 C1.34 4 0.68 4 0 4 C0 5.65 0 7.3 0 9 C-0.33 9 -0.66 9 -1 9 C-1.125 2.25 -1.125 2.25 0 0 Z " fill="#516CD6" transform="translate(310,281)"/>
<path d="M0 0 C1.98 0.495 1.98 0.495 4 1 C5.125 5.75 5.125 5.75 4 8 C3.34 8 2.68 8 2 8 C2 7.34 2 6.68 2 6 C1.01 5.67 0.02 5.34 -1 5 C-0.67 3.35 -0.34 1.7 0 0 Z " fill="#5072FC" transform="translate(175,214)"/>
<path d="M0 0 C0.350625 0.474375 0.70125 0.94875 1.0625 1.4375 C3.84163543 3.67873825 6.5144717 3.67117658 10 4 C10 4.33 10 4.66 10 5 C5.05 5 0.1 5 -5 5 C-3.33333333 3.33333333 -1.66666667 1.66666667 0 0 Z " fill="#497CEF" transform="translate(431,246)"/>
<path d="M0 0 C2.125 0.9375 2.125 0.9375 4 2 C4 3.32 4 4.64 4 6 C2.125 5.75 2.125 5.75 0 5 C-1.25 2.9375 -1.25 2.9375 -2 1 C-1.34 0.67 -0.68 0.34 0 0 Z " fill="#4D69E3" transform="translate(2,339)"/>
<path d="M0 0 C6.75 -0.125 6.75 -0.125 9 1 C8.67 2.65 8.34 4.3 8 6 C7.01 5.67 6.02 5.34 5 5 C5 4.34 5 3.68 5 3 C2.525 2.01 2.525 2.01 0 1 C0 0.67 0 0.34 0 0 Z " fill="#4969EA" transform="translate(358,223)"/>
<path d="M0 0 C3.72433382 1.2125738 7.37802806 2.50859979 11 4 C11 4.33 11 4.66 11 5 C8.36 5 5.72 5 3 5 C2.67 4.01 2.34 3.02 2 2 C1.34 2 0.68 2 0 2 C0 1.34 0 0.68 0 0 Z " fill="#5972E3" transform="translate(24,353)"/>
<path d="M0 0 C1.33332095 2.6666419 0.67102033 4.16680303 0 7 C-0.99 6.67 -1.98 6.34 -3 6 C-4.32 7.32 -5.64 8.64 -7 10 C-7.66 9.67 -8.32 9.34 -9 9 C-8.51789063 8.60167969 -8.03578125 8.20335937 -7.5390625 7.79296875 C-6.90742188 7.26316406 -6.27578125 6.73335938 -5.625 6.1875 C-4.99851563 5.66542969 -4.37203125 5.14335937 -3.7265625 4.60546875 C-1.7778952 2.91774261 -1.7778952 2.91774261 0 0 Z " fill="#C5DBEC" transform="translate(168,340)"/>
<path d="M0 0 C0.66 0 1.32 0 2 0 C2 2.31 2 4.62 2 7 C0.68 7 -0.64 7 -2 7 C-2.33 5.35 -2.66 3.7 -3 2 C-2.01 2.33 -1.02 2.66 0 3 C0 2.01 0 1.02 0 0 Z " fill="#4C6DF8" transform="translate(273,279)"/>
<path d="M0 0 C2.31 0.33 4.62 0.66 7 1 C7 2.32 7 3.64 7 5 C4.11424181 4.60196439 3.17810487 4.20990931 1.25 1.9375 C0.8375 1.298125 0.425 0.65875 0 0 Z " fill="#556CD2" transform="translate(350,280)"/>
<path d="M0 0 C1.65 0 3.3 0 5 0 C5 0.66 5 1.32 5 2 C4.34 2 3.68 2 3 2 C2.67 3.65 2.34 5.3 2 7 C1.01 7 0.02 7 -1 7 C-0.67 4.69 -0.34 2.38 0 0 Z " fill="#5174FA" transform="translate(260,250)"/>
<path d="M0 0 C1.32 0.33 2.64 0.66 4 1 C-1.01989102 5.11888494 -4.59858988 5.51211281 -11 5 C-11 4.67 -11 4.34 -11 4 C-8.02148438 3.65820312 -8.02148438 3.65820312 -5.04296875 3.31640625 C-2.80603607 3.02829265 -2.80603607 3.02829265 0 2 C0 1.34 0 0.68 0 0 Z " fill="#5B79D3" transform="translate(207,239)"/>
<path d="M0 0 C2.475 0.495 2.475 0.495 5 1 C5 2.32 5 3.64 5 5 C3.35 4.67 1.7 4.34 0 4 C0 2.68 0 1.36 0 0 Z " fill="#5B74EB" transform="translate(452,225)"/>
<path d="M0 0 C1.32 0.99 2.64 1.98 4 3 C3.34 4.32 2.68 5.64 2 7 C1.67 5.68 1.34 4.36 1 3 C-0.65 3.66 -2.3 4.32 -4 5 C-2.68 3.35 -1.36 1.7 0 0 Z " fill="#5870E1" transform="translate(243,284)"/>
<path d="M0 0 C0.66 0.33 1.32 0.66 2 1 C1.67 3.97 1.34 6.94 1 10 C0.34 10 -0.32 10 -1 10 C-2.25 3.375 -2.25 3.375 0 0 Z " fill="#516DD8" transform="translate(348,281)"/>
<path d="M0 0 C2.97 0 5.94 0 9 0 C9 0.66 9 1.32 9 2 C5.30458414 2.95024979 2.69541586 2.95024979 -1 2 C-0.67 1.34 -0.34 0.68 0 0 Z " fill="#4B78E9" transform="translate(474,249)"/>
<path d="M0 0 C1.32 0 2.64 0 4 0 C4 0.66 4 1.32 4 2 C3.0409375 2.433125 3.0409375 2.433125 2.0625 2.875 C-0.15206079 3.82823451 -0.15206079 3.82823451 -1 6 C-1.99 6 -2.98 6 -4 6 C-3.67 4.35 -3.34 2.7 -3 1 C-2.01 1.33 -1.02 1.66 0 2 C0 1.34 0 0.68 0 0 Z " fill="#496AF3" transform="translate(328,243)"/>
<path d="M0 0 C2.31 0 4.62 0 7 0 C6.67 0.99 6.34 1.98 6 3 C3.36 3.33 0.72 3.66 -2 4 C-1.34 2.68 -0.68 1.36 0 0 Z " fill="#496AF8" transform="translate(349,227)"/>
<path d="M0 0 C0.99 0.33 1.98 0.66 3 1 C3 2.98 3 4.96 3 7 C2.01 7 1.02 7 0 7 C-0.38133299 5.0085944 -0.71325582 3.00720923 -1 1 C-0.67 0.67 -0.34 0.34 0 0 Z " fill="#4E6DF9" transform="translate(356,312)"/>
<path d="M0 0 C0.99 0.66 1.98 1.32 3 2 C1.35 4.64 -0.3 7.28 -2 10 C-2.66 8.68 -3.32 7.36 -4 6 C-3.34 6 -2.68 6 -2 6 C-2 5.01 -2 4.02 -2 3 C-1.34 3 -0.68 3 0 3 C0 2.01 0 1.02 0 0 Z " fill="#5C75DF" transform="translate(201,298)"/>
<path d="M0 0 C3 1 3 1 4 3 C6.01669827 4.13350534 6.01669827 4.13350534 8 5 C5.6739143 5.38063221 3.33944736 5.71269945 1 6 C0 5 0 5 -0.0625 2.4375 C-0.041875 1.633125 -0.02125 0.82875 0 0 Z " fill="#4862F2" transform="translate(288,286)"/>
<path d="M0 0 C3.24208567 0.35049575 4.61527704 0.56221181 6.8125 3.0625 C7.204375 3.701875 7.59625 4.34125 8 5 C7.67 5.66 7.34 6.32 7 7 C6.34 7 5.68 7 5 7 C4.67 5.68 4.34 4.36 4 3 C2.35 2.67 0.7 2.34 -1 2 C-0.67 1.34 -0.34 0.68 0 0 Z " fill="#5D75C9" transform="translate(335,241)"/>
<path d="M0 0 C2.0625 1.6875 2.0625 1.6875 4 4 C3.75 6.75 3.75 6.75 3 9 C2.67 8.01 2.34 7.02 2 6 C1.34 6 0.68 6 0 6 C0 4.02 0 2.04 0 0 Z " fill="#5270F9" transform="translate(135,150)"/>
<path d="M0 0 C4.67692308 1.47692308 4.67692308 1.47692308 6.3125 4.125 C6.539375 4.74375 6.76625 5.3625 7 6 C6.01 6 5.02 6 4 6 C0 1.54285714 0 1.54285714 0 0 Z " fill="#CEE4EE" transform="translate(203,326)"/>
<path d="M0 0 C0.66 0.33 1.32 0.66 2 1 C1.979375 1.94875 1.95875 2.8975 1.9375 3.875 C1.77448174 6.90666283 1.77448174 6.90666283 3 9 C1.68 8.67 0.36 8.34 -1 8 C-1.04241723 5.66705225 -1.04092937 3.33297433 -1 1 C-0.67 0.67 -0.34 0.34 0 0 Z " fill="#446AF8" transform="translate(340,310)"/>
<path d="M0 0 C2.475 0.495 2.475 0.495 5 1 C4.34 2.32 3.68 3.64 3 5 C2.01 4.67 1.02 4.34 0 4 C0 2.68 0 1.36 0 0 Z " fill="#576FCF" transform="translate(332,275)"/>
<path d="M0 0 C0.99 0 1.98 0 3 0 C2.67 1.32 2.34 2.64 2 4 C3.32 3.34 4.64 2.68 6 2 C6 2.99 6 3.98 6 5 C4.34385343 5.38218767 2.67542976 5.71395102 1 6 C0 5 0 5 -0.0625 2.4375 C-0.041875 1.633125 -0.02125 0.82875 0 0 Z " fill="#5478E1" transform="translate(414,234)"/>
<path d="M0 0 C2.31 0.33 4.62 0.66 7 1 C7 1.33 7 1.66 7 2 C5.906875 2.309375 4.81375 2.61875 3.6875 2.9375 C1.44592006 3.58337897 -0.7869351 4.2623117 -3 5 C-3.66 4.34 -4.32 3.68 -5 3 C-4.360625 2.87625 -3.72125 2.7525 -3.0625 2.625 C-2.0415625 2.315625 -2.0415625 2.315625 -1 2 C-0.67 1.34 -0.34 0.68 0 0 Z " fill="#5E79D6" transform="translate(339,228)"/>
<path d="M0 0 C2.31 0 4.62 0 7 0 C7 1.33333333 7 2.66666667 7 4 C5.35 4 3.7 4 2 4 C2 3.01 2 2.02 2 1 C1.34 0.67 0.68 0.34 0 0 Z " fill="#526FF9" transform="translate(226,289)"/>
<path d="M0 0 C0.66 0.66 1.32 1.32 2 2 C1.625 4.625 1.625 4.625 1 7 C0.01 7.33 -0.98 7.66 -2 8 C-1.47731534 5.23723823 -0.89130413 2.6739124 0 0 Z " fill="#5172F9" transform="translate(257,262)"/>
<path d="M0 0 C0 1.65 0 3.3 0 5 C-1.32 5.33 -2.64 5.66 -4 6 C-3.625 3.5625 -3.625 3.5625 -3 1 C-1 0 -1 0 0 0 Z " fill="#5370F8" transform="translate(141,109)"/>
<path d="M0 0 C2.125 0.375 2.125 0.375 4 1 C3.67 1.99 3.34 2.98 3 4 C0.9375 4.6875 0.9375 4.6875 -1 5 C-1.33 4.01 -1.66 3.02 -2 2 C-1.34 1.34 -0.68 0.68 0 0 Z " fill="#5271F6" transform="translate(143,104)"/>
<path d="M0 0 C1.625 1.375 1.625 1.375 3 3 C3 3.66 3 4.32 3 5 C1.68 5 0.36 5 -1 5 C-1.33 4.34 -1.66 3.68 -2 3 C-2.66 3 -3.32 3 -4 3 C-4 2.34 -4 1.68 -4 1 C-2 0 -2 0 0 0 Z " fill="#4F71FD" transform="translate(26,355)"/>
<path d="M0 0 C0.99 0.33 1.98 0.66 3 1 C4.1875 3.5625 4.1875 3.5625 5 6 C4.01 6.495 4.01 6.495 3 7 C3 6.01 3 5.02 3 4 C2.34 4 1.68 4 1 4 C0.67 4.66 0.34 5.32 0 6 C0 4.02 0 2.04 0 0 Z " fill="#506FDE" transform="translate(214,240)"/>
<path d="M0 0 C2.31 0.66 4.62 1.32 7 2 C4.42786866 3.61949011 3.32330841 4.04408751 0.25 3.625 C-0.4925 3.41875 -1.235 3.2125 -2 3 C-1 1 -1 1 0 0 Z " fill="#5270EF" transform="translate(439,241)"/>
<path d="M0 0 C1.32 0.33 2.64 0.66 4 1 C4 2.32 4 3.64 4 5 C1.03 4.505 1.03 4.505 -2 4 C-1.34 2.68 -0.68 1.36 0 0 Z " fill="#526EDC" transform="translate(358,316)"/>
<path d="M0 0 C0.99 0.33 1.98 0.66 3 1 C1.68 3.31 0.36 5.62 -1 8 C-1.93065133 5.39417629 -2.14917407 4.35801776 -1.0625 1.75 C-0.711875 1.1725 -0.36125 0.595 0 0 Z " fill="#5E78AA" transform="translate(192,295)"/>
<path d="M0 0 C0.99 1.32 1.98 2.64 3 4 C2.67 4.66 2.34 5.32 2 6 C0.68 5.67 -0.64 5.34 -2 5 C-2 4.01 -2 3.02 -2 2 C-1.34 2 -0.68 2 0 2 C0 1.34 0 0.68 0 0 Z " fill="#4E6DDF" transform="translate(398,227)"/>
<path d="M0 0 C1.98 0.99 1.98 0.99 4 2 C4 3.32 4 4.64 4 6 C3.34 6 2.68 6 2 6 C2 5.34 2 4.68 2 4 C1.34 4 0.68 4 0 4 C0 2.68 0 1.36 0 0 Z " fill="#5272FB" transform="translate(249,138)"/>
<path d="" fill="#6E889E" transform="translate(0,0)"/>
<path d="" fill="#5E8EA0" transform="translate(0,0)"/>
</svg>
